<svg width="651" height="306" viewBox="0 0 651 306" fill="none" xmlns="http://www.w3.org/2000/svg">
<path d="M95.0156 55.9219V101.781C93.1406 103.917 90.276 106.208 86.4219 108.656C82.6198 111.104 77.75 113.214 71.8125 114.984C65.875 116.703 58.7917 117.562 50.5625 117.562C43.1146 117.562 36.3438 116.365 30.25 113.969C24.1562 111.521 18.9219 107.953 14.5469 103.266C10.1719 98.526 6.78646 92.7448 4.39062 85.9219C2.04688 79.099 0.875 71.2865 0.875 62.4844V55.7656C0.875 46.9635 2.04688 39.151 4.39062 32.3281C6.73438 25.5052 10.0417 19.75 14.3125 15.0625C18.5833 10.3229 23.6615 6.72917 29.5469 4.28125C35.4323 1.83333 41.9427 0.609375 49.0781 0.609375C59.2344 0.609375 67.5417 2.25 74 5.53125C80.4583 8.76042 85.3542 13.2396 88.6875 18.9688C92.0729 24.6979 94.1562 31.2865 94.9375 38.7344H70.4062C69.8854 34.9323 68.8438 31.651 67.2812 28.8906C65.7708 26.1302 63.6094 24.0208 60.7969 22.5625C57.9844 21.0521 54.3385 20.2969 49.8594 20.2969C46.2656 20.2969 43.0104 21.0521 40.0938 22.5625C37.2292 24.0208 34.8073 26.2344 32.8281 29.2031C30.849 32.1719 29.3385 35.8698 28.2969 40.2969C27.2552 44.6719 26.7344 49.776 26.7344 55.6094V62.4844C26.7344 68.3177 27.2552 73.4479 28.2969 77.875C29.3906 82.3021 30.9792 86 33.0625 88.9688C35.1458 91.8854 37.776 94.099 40.9531 95.6094C44.1823 97.1198 47.9323 97.875 52.2031 97.875C55.5365 97.875 58.349 97.6146 60.6406 97.0938C62.9323 96.5208 64.8073 95.8177 66.2656 94.9844C67.724 94.099 68.8177 93.2917 69.5469 92.5625V73.6562H49.3125V55.9219H95.0156ZM112.438 2.25H156.109C164.807 2.25 172.333 3.55208 178.688 6.15625C185.094 8.76042 190.016 12.6146 193.453 17.7188C196.891 22.8229 198.609 29.125 198.609 36.625C198.609 42.875 197.594 48.1875 195.562 52.5625C193.531 56.9375 190.667 60.5573 186.969 63.4219C183.323 66.2865 179.052 68.6042 174.156 70.375L165.875 74.9062H128.688L128.531 55.1406H156.188C159.99 55.1406 163.141 54.4635 165.641 53.1094C168.141 51.7552 170.016 49.8542 171.266 47.4062C172.568 44.9062 173.219 41.9896 173.219 38.6562C173.219 35.2188 172.568 32.25 171.266 29.75C169.964 27.25 168.036 25.349 165.484 24.0469C162.984 22.6927 159.859 22.0156 156.109 22.0156H137.906V116H112.438V2.25ZM175.406 116L149.859 65.4531L176.734 65.375L202.672 114.828V116H175.406ZM293.219 96.3125V116H232.672V96.3125H293.219ZM241.344 2.25V116H215.875V2.25H241.344ZM285.406 48.0312V67.0938H232.672V48.0312H285.406ZM293.297 2.25V22.0156H232.672V2.25H293.297ZM383.062 96.3125V116H322.516V96.3125H383.062ZM331.188 2.25V116H305.719V2.25H331.188ZM375.25 48.0312V67.0938H322.516V48.0312H375.25ZM383.141 2.25V22.0156H322.516V2.25H383.141ZM489.391 2.25V116H464L421.031 42.4844V116H395.562V2.25H421.031L464.078 75.7656V2.25H489.391ZM68.7656 265.875H94.0781C93.6615 273.688 91.526 280.589 87.6719 286.578C83.8698 292.516 78.5833 297.177 71.8125 300.562C65.0417 303.896 56.9948 305.562 47.6719 305.562C40.224 305.562 33.5573 304.286 27.6719 301.734C21.7865 299.182 16.7865 295.536 12.6719 290.797C8.60938 286.005 5.48438 280.25 3.29688 273.531C1.16146 266.76 0.09375 259.13 0.09375 250.641V243.688C0.09375 235.198 1.21354 227.568 3.45312 220.797C5.69271 214.026 8.89583 208.245 13.0625 203.453C17.2292 198.661 22.2292 194.99 28.0625 192.438C33.8958 189.885 40.4062 188.609 47.5938 188.609C57.2812 188.609 65.4583 190.354 72.125 193.844C78.7917 197.333 83.9479 202.125 87.5938 208.219C91.2917 214.312 93.5052 221.266 94.2344 229.078H68.8438C68.6354 224.651 67.8021 220.927 66.3438 217.906C64.8854 214.833 62.6458 212.516 59.625 210.953C56.6042 209.391 52.5938 208.609 47.5938 208.609C43.9479 208.609 40.7448 209.286 37.9844 210.641C35.276 211.995 33.0104 214.104 31.1875 216.969C29.4167 219.833 28.0885 223.479 27.2031 227.906C26.3177 232.281 25.875 237.49 25.875 243.531V250.641C25.875 256.63 26.2656 261.812 27.0469 266.188C27.8281 270.562 29.0781 274.182 30.7969 277.047C32.5677 279.911 34.8333 282.047 37.5938 283.453C40.3542 284.859 43.7135 285.562 47.6719 285.562C52.2031 285.562 55.9792 284.859 59 283.453C62.0208 281.995 64.3385 279.807 65.9531 276.891C67.5677 273.974 68.5052 270.302 68.7656 265.875ZM155.484 211.891L126.109 304H98.9219L141.031 190.25H158.219L155.484 211.891ZM179.859 304L150.406 211.891L147.359 190.25H164.781L207.047 304H179.859ZM178.609 261.656V281.344H119.312V261.656H178.609ZM228.688 190.25H249.781L277.125 271.578L304.391 190.25H325.484L285.641 304H268.531L228.688 190.25ZM216.5 190.25H237.984L241.969 274.547V304H216.5V190.25ZM316.188 190.25H337.75V304H312.203V274.547L316.188 190.25ZM401.5 264.469H372.906V244.703H401.5C405.719 244.703 409.104 244 411.656 242.594C414.26 241.188 416.161 239.26 417.359 236.812C418.609 234.312 419.234 231.5 419.234 228.375C419.234 225.146 418.609 222.151 417.359 219.391C416.161 216.578 414.26 214.312 411.656 212.594C409.104 210.875 405.719 210.016 401.5 210.016H382.125V304H356.656V190.25H401.5C410.562 190.25 418.323 191.891 424.781 195.172C431.292 198.453 436.266 202.958 439.703 208.688C443.193 214.365 444.938 220.875 444.938 228.219C444.938 235.562 443.193 241.943 439.703 247.359C436.266 252.776 431.292 256.995 424.781 260.016C418.323 262.984 410.562 264.469 401.5 264.469ZM522.672 190.25H548.141V264.938C548.141 273.792 546.266 281.24 542.516 287.281C538.818 293.323 533.661 297.88 527.047 300.953C520.432 304.026 512.776 305.562 504.078 305.562C495.328 305.562 487.62 304.026 480.953 300.953C474.339 297.88 469.13 293.323 465.328 287.281C461.578 281.24 459.703 273.792 459.703 264.938V190.25H485.25V264.938C485.25 269.833 485.979 273.844 487.438 276.969C488.948 280.042 491.109 282.307 493.922 283.766C496.734 285.172 500.12 285.875 504.078 285.875C508.036 285.875 511.396 285.172 514.156 283.766C516.969 282.307 519.078 280.042 520.484 276.969C521.943 273.844 522.672 269.833 522.672 264.938V190.25ZM625.328 274C625.328 272.073 625.042 270.354 624.469 268.844C623.896 267.281 622.854 265.849 621.344 264.547C619.833 263.245 617.698 261.943 614.938 260.641C612.177 259.286 608.557 257.906 604.078 256.5C598.974 254.833 594.104 252.958 589.469 250.875C584.885 248.74 580.797 246.266 577.203 243.453C573.609 240.641 570.771 237.359 568.688 233.609C566.656 229.859 565.641 225.484 565.641 220.484C565.641 215.641 566.708 211.266 568.844 207.359C570.979 203.453 573.974 200.12 577.828 197.359C581.682 194.547 586.214 192.411 591.422 190.953C596.63 189.443 602.359 188.688 608.609 188.688C616.943 188.688 624.26 190.172 630.562 193.141C636.917 196.057 641.865 200.172 645.406 205.484C648.948 210.745 650.719 216.865 650.719 223.844H625.406C625.406 220.771 624.755 218.062 623.453 215.719C622.203 213.323 620.276 211.448 617.672 210.094C615.12 208.74 611.917 208.062 608.062 208.062C604.312 208.062 601.161 208.635 598.609 209.781C596.109 210.875 594.208 212.385 592.906 214.312C591.656 216.24 591.031 218.349 591.031 220.641C591.031 222.464 591.5 224.13 592.438 225.641C593.427 227.099 594.833 228.479 596.656 229.781C598.531 231.031 600.823 232.229 603.531 233.375C606.24 234.521 609.339 235.615 612.828 236.656C618.922 238.583 624.312 240.719 629 243.062C633.74 245.406 637.724 248.062 640.953 251.031C644.182 254 646.604 257.359 648.219 261.109C649.885 264.859 650.719 269.104 650.719 273.844C650.719 278.896 649.729 283.375 647.75 287.281C645.823 291.188 643.01 294.521 639.312 297.281C635.667 299.99 631.292 302.047 626.188 303.453C621.083 304.859 615.38 305.562 609.078 305.562C603.349 305.562 597.698 304.833 592.125 303.375C586.552 301.865 581.5 299.573 576.969 296.5C572.49 293.427 568.896 289.521 566.188 284.781C563.531 279.99 562.203 274.312 562.203 267.75H587.672C587.672 271.188 588.167 274.104 589.156 276.5C590.146 278.844 591.552 280.745 593.375 282.203C595.25 283.661 597.516 284.703 600.172 285.328C602.828 285.953 605.797 286.266 609.078 286.266C612.88 286.266 615.953 285.745 618.297 284.703C620.693 283.609 622.464 282.125 623.609 280.25C624.755 278.375 625.328 276.292 625.328 274Z" fill="url(#paint0_linear_20_62)"/>
<defs>
<linearGradient id="paint0_linear_20_62" x1="325.5" y1="-33" x2="325.5" y2="343" gradientUnits="userSpaceOnUse">
<stop stop-color="#066664"/>
<stop offset="1" stop-color="#4FC471" stop-opacity="0.55"/>
</linearGradient>
</defs>
</svg>
