<svg width="199" height="199" viewBox="0 0 199 199" fill="none" xmlns="http://www.w3.org/2000/svg">
<path d="M123.201 122.996C82.7075 134.952 67.104 119.293 62.2543 111.802C61.0115 109.939 60.0103 108.001 59.2882 106.107C53.4839 104.474 44.8844 98.5475 39.2082 78.2068L41.659 77.5752C45.4635 91.4825 51.4051 100.355 58.2266 103.128C56.0615 95.3292 57.4474 87.8805 60.8806 84.0302C63.6203 80.9259 67.3909 80.2801 71.3933 82.0786C76.6617 84.5408 79.1692 89.1878 78.0267 94.4421C76.7471 100.533 70.1445 106.96 62.1975 106.524C66.947 117.092 82.2418 132.184 121.807 120.649L113.494 116.488L114.657 114.272L127.244 120.677L120.84 133.264L118.623 132.1L123.201 122.996ZM75.6376 93.9955C76.0842 91.6058 76.1707 87.2097 70.3897 84.3769C67.4199 82.9197 64.8111 83.4677 62.8479 85.6678C59.8217 89.1265 58.8428 96.1832 61.0992 103.424L61.2495 103.906C61.9283 103.96 62.6069 104.013 63.406 104.029C69.8461 103.876 74.6231 98.8137 75.6375 93.9956L75.6376 93.9955Z" fill="#066664" fill-opacity="0.8"/>
</svg>
