<svg width="228" height="86" viewBox="0 0 228 86" fill="none" xmlns="http://www.w3.org/2000/svg">
<path d="M2.8 5.2C2.4 5.36 2.05333 5.37333 1.76 5.24C1.46667 5.10666 1.25333 4.93333 1.12 4.72C0.933333 4.45333 0.88 4.17333 0.96 3.88C1.04 3.58667 1.26667 3.33333 1.64 3.12C2.25333 2.77333 3.02667 2.49333 3.96 2.28C4.89333 2.04 5.89333 1.97333 6.96 2.08C8.02667 2.18666 9 2.48 9.88 2.96C10.7867 3.41333 11.5467 4 12.16 4.72C12.8 5.44 13.28 6.26667 13.6 7.2C13.9467 8.10667 14.1067 9.06667 14.08 10.08C14.0267 11.1467 13.8133 12.2133 13.44 13.28C13.0933 14.3467 12.6 15.3467 11.96 16.28C11.3467 17.2133 10.6 18.0667 9.72 18.84C8.86667 19.5867 7.92 20.1733 6.88 20.6C6.16 20.7867 5.61333 20.8133 5.24 20.68C4.86667 20.5467 4.61333 20.3867 4.48 20.2C4.42667 20.0667 4.4 19.8933 4.4 19.68C4.42667 19.44 4.57333 19.2 4.84 18.96C4.52 16.3733 4.32 13.88 4.24 11.48C4.18667 9.05333 4.16 6.84 4.16 4.84C3.70667 4.92 3.25333 5.04 2.8 5.2ZM7.16 4.68C7 4.65333 6.82667 4.64 6.64 4.64C6.48 4.61333 6.32 4.6 6.16 4.6C6.32 4.81333 6.45333 5.08 6.56 5.4C6.66667 5.69333 6.72 5.98667 6.72 6.28C6.72 7.90667 6.73333 9.65333 6.76 11.52C6.81333 13.3867 6.94667 15.4 7.16 17.56C8.33333 16.7067 9.33333 15.64 10.16 14.36C11.0133 13.0533 11.4667 11.68 11.52 10.24C11.5467 8.90667 11.2133 7.73333 10.52 6.72C9.82667 5.68 8.70667 5 7.16 4.68ZM26.8122 11.6C25.7722 12.2133 24.6522 12.6933 23.4522 13.04C22.2522 13.36 20.9589 13.52 19.5722 13.52C19.6255 14.4533 19.8922 15.2 20.3722 15.76C20.8522 16.2933 21.4522 16.6133 22.1722 16.72C22.5989 16.7733 23.0255 16.76 23.4522 16.68C23.9055 16.6 24.3189 16.48 24.6922 16.32C25.0922 16.1333 25.4522 15.9333 25.7722 15.72C26.0922 15.5067 26.3722 15.2933 26.6122 15.08C26.8522 14.8667 27.1055 14.7333 27.3722 14.68C27.6389 14.6 27.8389 14.5867 27.9722 14.64C28.3455 14.7733 28.4789 15.1733 28.3722 15.84C27.9455 16.6933 27.3322 17.4267 26.5322 18.04C25.7322 18.6267 24.8389 19 23.8522 19.16C22.9989 19.32 22.1189 19.28 21.2122 19.04C20.3055 18.8 19.4922 18.3333 18.7722 17.64C18.1589 17.0267 17.6922 16.3067 17.3722 15.48C17.0522 14.6533 16.8522 13.8 16.7722 12.92C16.6922 12.0933 16.7589 11.3067 16.9722 10.56C17.2122 9.81333 17.5722 9.16 18.0522 8.6C18.5322 8.01333 19.1322 7.53333 19.8522 7.16C20.5722 6.78667 21.4122 6.57333 22.3722 6.52C23.5189 6.44 24.5589 6.65333 25.4922 7.16C26.4255 7.66667 27.0789 8.37333 27.4522 9.28C27.6655 9.78667 27.7189 10.2267 27.6122 10.6C27.5322 10.9733 27.2655 11.3067 26.8122 11.6ZM22.2122 8.88C21.9455 8.93333 21.6522 9.02667 21.3322 9.16C21.0389 9.29333 20.7589 9.46667 20.4922 9.68C20.2522 9.86667 20.0255 10.0933 19.8122 10.36C19.6255 10.6 19.5189 10.88 19.4922 11.2C19.9455 11.2 20.4389 11.16 20.9722 11.08C21.5322 11 22.0655 10.9067 22.5722 10.8C23.1055 10.6667 23.5855 10.52 24.0122 10.36C24.4655 10.2 24.8389 10.0267 25.1322 9.84C24.9189 9.33333 24.5189 9.02667 23.9322 8.92C23.3722 8.78667 22.7989 8.77333 22.2122 8.88ZM40.3556 10.72C40.169 10.8267 39.9423 10.8667 39.6756 10.84C39.409 10.7867 39.1823 10.6133 38.9956 10.32C38.569 9.76 38.049 9.48 37.4356 9.48C36.8756 9.48 36.369 9.61333 35.9156 9.88C35.489 10.12 35.1023 10.4533 34.7556 10.88C34.4356 11.28 34.169 11.7333 33.9556 12.24C33.7423 12.7467 33.5956 13.2533 33.5156 13.76C33.3823 14.6933 33.5423 15.48 33.9956 16.12C34.449 16.76 35.1556 17.08 36.1156 17.08C36.889 17.1067 37.7556 16.96 38.7156 16.64C39.7023 16.2933 40.6223 15.8533 41.4756 15.32C41.849 15.16 42.1956 15.0667 42.5156 15.04C42.8356 15.0133 43.1023 15.1733 43.3156 15.52C43.5823 15.9467 43.5156 16.3867 43.1156 16.84C42.7156 17.2667 42.1823 17.6533 41.5156 18C40.849 18.3733 40.1423 18.7067 39.3956 19C38.6756 19.2667 37.9423 19.4667 37.1956 19.6C36.449 19.7067 35.7023 19.7067 34.9556 19.6C34.2356 19.4933 33.5556 19.24 32.9156 18.84C31.9023 18.1467 31.289 17.16 31.0756 15.88C30.8623 14.6 30.9556 13.28 31.3556 11.92C31.5156 11.4133 31.7423 10.9067 32.0356 10.4C32.329 9.86667 32.6756 9.38667 33.0756 8.96C33.5023 8.53333 33.969 8.17333 34.4756 7.88C34.9823 7.56 35.5423 7.34667 36.1556 7.24C37.1423 7.08 38.089 7.18667 38.9956 7.56C39.9023 7.90667 40.5023 8.56 40.7956 9.52C40.849 9.73333 40.849 9.96 40.7956 10.2C40.7423 10.4133 40.5956 10.5867 40.3556 10.72ZM54.8478 7.04C55.6478 7.33333 56.3145 7.77333 56.8478 8.36C57.4078 8.94667 57.8345 9.61333 58.1278 10.36C58.4211 11.08 58.5811 11.8267 58.6078 12.6C58.6611 13.3733 58.5811 14.0933 58.3678 14.76C58.0745 15.5067 57.7011 16.24 57.2478 16.96C56.7945 17.68 56.2745 18.32 55.6878 18.88C55.1011 19.44 54.4345 19.8933 53.6878 20.24C52.9411 20.5867 52.1145 20.76 51.2078 20.76C50.1145 20.76 49.1945 20.5067 48.4478 20C47.7011 19.4933 47.1145 18.84 46.6878 18.04C46.2611 17.24 45.9811 16.3333 45.8478 15.32C45.7411 14.3067 45.7678 13.2933 45.9278 12.28C46.0345 11.5333 46.2078 10.8133 46.4478 10.12C46.7145 9.4 47.0478 8.77333 47.4478 8.24C47.8478 7.68 48.3011 7.22667 48.8078 6.88C49.3411 6.53333 49.9411 6.36 50.6078 6.36C50.9811 6.36 51.4478 6.44 52.0078 6.6C52.5678 6.73333 53.0878 6.93333 53.5678 7.2C53.9145 6.88 54.3411 6.82667 54.8478 7.04ZM53.3278 9.96C53.0345 9.77333 52.6878 9.53333 52.2878 9.24C51.9145 8.92 51.5811 8.76 51.2878 8.76C50.9678 8.76 50.6478 8.90667 50.3278 9.2C50.0345 9.49333 49.7678 9.84 49.5278 10.24C49.3145 10.6133 49.1278 11 48.9678 11.4C48.8078 11.8 48.7011 12.12 48.6478 12.36C48.5678 12.76 48.5145 13.24 48.4878 13.8C48.4611 14.36 48.5011 14.92 48.6078 15.48C48.7145 16.0133 48.9145 16.5067 49.2078 16.96C49.5278 17.3867 49.9945 17.6933 50.6078 17.88C50.9811 17.9867 51.4211 17.9867 51.9278 17.88C52.4345 17.7467 52.9278 17.52 53.4078 17.2C53.9145 16.88 54.3811 16.4533 54.8078 15.92C55.2611 15.3867 55.6078 14.7733 55.8478 14.08C56.1145 13.3067 56.1145 12.5067 55.8478 11.68C55.6078 10.8267 55.1011 10.2133 54.3278 9.84C54.1411 9.97333 53.9545 10.04 53.7678 10.04C53.5811 10.04 53.4345 10.0133 53.3278 9.96ZM65.2597 9.16C65.0997 9.88 64.9397 10.68 64.7797 11.56C64.6197 12.4133 64.4997 13.24 64.4197 14.04C64.3664 14.84 64.3664 15.56 64.4197 16.2C64.4997 16.84 64.673 17.2933 64.9397 17.56C65.393 17.64 65.913 17.4533 66.4997 17C67.0864 16.52 67.6597 15.92 68.2197 15.2C68.7797 14.48 69.2864 13.7067 69.7397 12.88C70.193 12.0267 70.513 11.28 70.6997 10.64C70.8064 10.32 70.8997 9.98667 70.9797 9.64C71.0597 9.29333 71.0997 8.93333 71.0997 8.56C71.0997 8.34667 71.233 8.14667 71.4997 7.96C71.793 7.74667 72.033 7.62667 72.2197 7.6C72.353 7.57333 72.4997 7.6 72.6597 7.68C72.8464 7.76 73.0064 7.88 73.1397 8.04C73.2997 8.17333 73.433 8.34667 73.5397 8.56C73.673 8.74667 73.7397 8.94667 73.7397 9.16C73.793 9.96 73.873 10.84 73.9797 11.8C74.0864 12.76 74.2064 13.72 74.3397 14.68C74.4997 15.64 74.6597 16.5733 74.8197 17.48C74.9797 18.3867 75.1397 19.2 75.2997 19.92C75.3797 20.2133 75.2997 20.5467 75.0597 20.92C74.8197 21.2933 74.553 21.52 74.2597 21.6C74.0197 21.6533 73.7664 21.6267 73.4997 21.52C73.2597 21.4133 73.073 21.2 72.9397 20.88C72.8064 20.5067 72.673 20.0533 72.5397 19.52C72.433 18.96 72.3264 18.3867 72.2197 17.8C72.1397 17.1867 72.0597 16.6133 71.9797 16.08C71.8997 15.52 71.8464 15.0533 71.8197 14.68C71.4197 15.4 70.9397 16.1333 70.3797 16.88C69.8464 17.6 69.2597 18.2667 68.6197 18.88C68.0064 19.4667 67.353 19.9333 66.6597 20.28C65.993 20.6 65.2997 20.72 64.5797 20.64C63.513 20.5067 62.6997 19.5067 62.1397 17.64C61.9264 16.8933 61.8197 16.0667 61.8197 15.16C61.8464 14.2533 61.913 13.36 62.0197 12.48C62.153 11.5733 62.2997 10.72 62.4597 9.92C62.6464 9.12 62.8064 8.46667 62.9397 7.96C62.993 7.74667 63.0997 7.56 63.2597 7.4C63.4197 7.21333 63.6064 7.14667 63.8197 7.2C64.2197 7.28 64.5797 7.52 64.8997 7.92C65.2464 8.32 65.3664 8.73333 65.2597 9.16ZM91.7059 6.48C91.2793 7.2 90.8526 7.90667 90.4259 8.6C89.9993 9.29333 89.5326 10.0933 89.0259 11C88.5459 11.88 87.9859 12.9067 87.3459 14.08C86.7059 15.2533 85.9593 16.68 85.1059 18.36C84.8926 18.76 84.6793 19.08 84.4659 19.32C84.2526 19.56 83.9993 19.68 83.7059 19.68C83.3059 19.68 82.9859 19.5733 82.7459 19.36C82.5326 19.12 82.3459 18.8667 82.1859 18.6C81.3059 17.1333 80.4393 15.5067 79.5859 13.72C78.7326 11.9333 78.0393 10.1867 77.5059 8.48C77.4526 8.34667 77.4526 8.2 77.5059 8.04C77.5859 7.85333 77.6926 7.73333 77.8259 7.68C78.0926 7.54667 78.4393 7.53333 78.8659 7.64C79.1859 7.77333 79.5059 8.01333 79.8259 8.36C80.1459 8.70667 80.3993 9.06667 80.5859 9.44C80.7459 9.81333 80.9326 10.24 81.1459 10.72C81.3593 11.2 81.5859 11.72 81.8259 12.28C82.0926 12.8133 82.3593 13.3467 82.6259 13.88C82.8926 14.4133 83.1593 14.8933 83.4259 15.32C83.8793 14.52 84.3593 13.6667 84.8659 12.76C85.3993 11.8267 85.9326 10.8933 86.4659 9.96C86.9993 9 87.5326 8.08 88.0659 7.2C88.6259 6.32 89.1726 5.53333 89.7059 4.84C89.8393 4.65333 90.0259 4.54667 90.2659 4.52C90.5059 4.49333 90.7726 4.58666 91.0659 4.8C91.7326 5.30667 91.9459 5.86667 91.7059 6.48ZM106.358 7.2C105.878 7.46667 105.371 7.74667 104.838 8.04C104.331 8.33333 103.811 8.68 103.278 9.08C102.771 9.45333 102.278 9.90667 101.798 10.44C101.344 10.9467 100.931 11.56 100.558 12.28C100.024 13.2933 99.6645 14.3333 99.4778 15.4C99.2911 16.44 99.1711 17.4667 99.1178 18.48C99.1178 18.96 98.9978 19.4533 98.7578 19.96C98.5445 20.44 98.2378 20.68 97.8378 20.68C97.3311 20.68 96.9178 20.4267 96.5978 19.92C96.3045 19.3867 96.1045 18.88 95.9978 18.4C95.5445 16.5067 95.1711 14.64 94.8778 12.8C94.5845 10.9333 94.3311 9.08 94.1178 7.24C94.1178 6.86667 94.2245 6.62667 94.4378 6.52C94.6778 6.41333 94.9445 6.37333 95.2378 6.4C95.5578 6.42667 95.8645 6.50667 96.1578 6.64C96.4511 6.77333 96.6245 6.98667 96.6778 7.28C96.7845 8.26667 96.9178 9.30667 97.0778 10.4C97.2378 11.4667 97.3978 12.3867 97.5578 13.16C97.6645 12.2533 97.9578 11.3733 98.4378 10.52C98.9178 9.66667 99.5045 8.89333 100.198 8.2C100.918 7.50667 101.718 6.92 102.598 6.44C103.504 5.96 104.424 5.64 105.358 5.48C105.758 5.42667 106.091 5.42667 106.358 5.48C106.624 5.53333 106.811 5.62667 106.918 5.76C107.024 5.89333 107.038 6.10667 106.958 6.4C106.904 6.69333 106.704 6.96 106.358 7.2ZM118.453 11.6C117.413 12.2133 116.293 12.6933 115.093 13.04C113.893 13.36 112.599 13.52 111.213 13.52C111.266 14.4533 111.533 15.2 112.013 15.76C112.493 16.2933 113.093 16.6133 113.813 16.72C114.239 16.7733 114.666 16.76 115.093 16.68C115.546 16.6 115.959 16.48 116.333 16.32C116.733 16.1333 117.093 15.9333 117.413 15.72C117.733 15.5067 118.013 15.2933 118.253 15.08C118.493 14.8667 118.746 14.7333 119.013 14.68C119.279 14.6 119.479 14.5867 119.613 14.64C119.986 14.7733 120.119 15.1733 120.013 15.84C119.586 16.6933 118.973 17.4267 118.173 18.04C117.373 18.6267 116.479 19 115.493 19.16C114.639 19.32 113.759 19.28 112.853 19.04C111.946 18.8 111.133 18.3333 110.413 17.64C109.799 17.0267 109.333 16.3067 109.013 15.48C108.693 14.6533 108.493 13.8 108.413 12.92C108.333 12.0933 108.399 11.3067 108.613 10.56C108.853 9.81333 109.213 9.16 109.693 8.6C110.173 8.01333 110.773 7.53333 111.493 7.16C112.213 6.78667 113.053 6.57333 114.013 6.52C115.159 6.44 116.199 6.65333 117.133 7.16C118.066 7.66667 118.719 8.37333 119.093 9.28C119.306 9.78667 119.359 10.2267 119.253 10.6C119.173 10.9733 118.906 11.3067 118.453 11.6ZM113.853 8.88C113.586 8.93333 113.293 9.02667 112.973 9.16C112.679 9.29333 112.399 9.46667 112.133 9.68C111.893 9.86667 111.666 10.0933 111.453 10.36C111.266 10.6 111.159 10.88 111.133 11.2C111.586 11.2 112.079 11.16 112.613 11.08C113.173 11 113.706 10.9067 114.213 10.8C114.746 10.6667 115.226 10.52 115.653 10.36C116.106 10.2 116.479 10.0267 116.773 9.84C116.559 9.33333 116.159 9.02667 115.573 8.92C115.013 8.78667 114.439 8.77333 113.853 8.88ZM137.367 2.28C137.501 5.18667 137.727 8.2 138.047 11.32C138.367 14.4133 138.714 17.3733 139.087 20.2C139.167 21.3733 138.847 21.9733 138.127 22C137.967 22 137.807 21.9467 137.647 21.84C137.487 21.7067 137.341 21.5467 137.207 21.36C137.074 21.1733 136.941 20.9733 136.807 20.76C136.701 20.5467 136.634 20.36 136.607 20.2C136.394 18.84 136.194 17.4 136.007 15.88C135.821 14.36 135.647 12.84 135.487 11.32C135.354 9.77333 135.234 8.26667 135.127 6.8C135.021 5.33333 134.954 3.98667 134.927 2.76C134.981 2.12 135.074 1.58667 135.207 1.16C135.341 0.706666 135.621 0.493333 136.047 0.519999C136.501 0.546665 136.821 0.733332 137.007 1.08C137.221 1.4 137.341 1.8 137.367 2.28ZM152.047 11.6C151.007 12.2133 149.887 12.6933 148.687 13.04C147.487 13.36 146.193 13.52 144.807 13.52C144.86 14.4533 145.127 15.2 145.607 15.76C146.087 16.2933 146.687 16.6133 147.407 16.72C147.833 16.7733 148.26 16.76 148.687 16.68C149.14 16.6 149.553 16.48 149.927 16.32C150.327 16.1333 150.687 15.9333 151.007 15.72C151.327 15.5067 151.607 15.2933 151.847 15.08C152.087 14.8667 152.34 14.7333 152.607 14.68C152.873 14.6 153.073 14.5867 153.207 14.64C153.58 14.7733 153.713 15.1733 153.607 15.84C153.18 16.6933 152.567 17.4267 151.767 18.04C150.967 18.6267 150.073 19 149.087 19.16C148.233 19.32 147.353 19.28 146.447 19.04C145.54 18.8 144.727 18.3333 144.007 17.64C143.393 17.0267 142.927 16.3067 142.607 15.48C142.287 14.6533 142.087 13.8 142.007 12.92C141.927 12.0933 141.993 11.3067 142.207 10.56C142.447 9.81333 142.807 9.16 143.287 8.6C143.767 8.01333 144.367 7.53333 145.087 7.16C145.807 6.78667 146.647 6.57333 147.607 6.52C148.753 6.44 149.793 6.65333 150.727 7.16C151.66 7.66667 152.313 8.37333 152.687 9.28C152.9 9.78667 152.953 10.2267 152.847 10.6C152.767 10.9733 152.5 11.3067 152.047 11.6ZM147.447 8.88C147.18 8.93333 146.887 9.02667 146.567 9.16C146.273 9.29333 145.993 9.46667 145.727 9.68C145.487 9.86667 145.26 10.0933 145.047 10.36C144.86 10.6 144.753 10.88 144.727 11.2C145.18 11.2 145.673 11.16 146.207 11.08C146.767 11 147.3 10.9067 147.807 10.8C148.34 10.6667 148.82 10.52 149.247 10.36C149.7 10.2 150.073 10.0267 150.367 9.84C150.153 9.33333 149.753 9.02667 149.167 8.92C148.607 8.78667 148.033 8.77333 147.447 8.88ZM163.87 9.04C163.817 8.74667 163.763 8.46667 163.71 8.2C163.657 7.93333 163.523 7.76 163.31 7.68C162.857 7.54667 162.377 7.53333 161.87 7.64C161.363 7.74667 160.897 7.92 160.47 8.16C160.043 8.37333 159.683 8.62667 159.39 8.92C159.097 9.18667 158.937 9.42667 158.91 9.64C158.83 10.04 158.937 10.4267 159.23 10.8C159.523 11.1733 159.95 11.5467 160.51 11.92C161.443 12.48 162.417 13.0533 163.43 13.64C164.443 14.2267 165.297 14.8267 165.99 15.44C166.683 16.0533 167.15 16.7333 167.39 17.48C167.657 18.2 167.603 19.0267 167.23 19.96C166.937 20.68 166.39 21.2667 165.59 21.72C164.79 22.1733 163.91 22.5333 162.95 22.8C161.99 23.04 161.03 23.2133 160.07 23.32C159.11 23.4 158.297 23.44 157.63 23.44C157.47 23.44 157.27 23.3867 157.03 23.28C156.817 23.1467 156.603 23 156.39 22.84C156.203 22.68 156.03 22.52 155.87 22.36C155.737 22.1733 155.67 22.0133 155.67 21.88C155.67 21.4 155.883 21.0667 156.31 20.88C156.737 20.6933 157.177 20.6 157.63 20.6C158.27 20.6 158.95 20.5733 159.67 20.52C160.417 20.44 161.123 20.3333 161.79 20.2C162.457 20.04 163.057 19.84 163.59 19.6C164.123 19.36 164.497 19.0533 164.71 18.68C164.897 18.36 164.777 17.9867 164.35 17.56C163.95 17.1067 163.403 16.64 162.71 16.16C162.043 15.68 161.31 15.2133 160.51 14.76C159.737 14.3067 159.07 13.8933 158.51 13.52C157.95 13.1467 157.47 12.7067 157.07 12.2C156.67 11.6667 156.417 11.0133 156.31 10.24C156.283 9.54667 156.43 8.88 156.75 8.24C157.07 7.6 157.483 7.04 157.99 6.56C158.523 6.05333 159.123 5.65333 159.79 5.36C160.457 5.06667 161.123 4.92 161.79 4.92C162.937 4.97333 163.883 5.29333 164.63 5.88C165.377 6.44 165.817 7.28 165.95 8.4C165.95 8.77333 165.883 9.08 165.75 9.32C165.643 9.56 165.443 9.70667 165.15 9.76C164.777 9.81333 164.47 9.77333 164.23 9.64C164.017 9.48 163.897 9.28 163.87 9.04ZM10.12 39.04C10.0667 38.7467 10.0133 38.4667 9.96 38.2C9.90667 37.9333 9.77333 37.76 9.56 37.68C9.10667 37.5467 8.62667 37.5333 8.12 37.64C7.61333 37.7467 7.14667 37.92 6.72 38.16C6.29333 38.3733 5.93333 38.6267 5.64 38.92C5.34667 39.1867 5.18667 39.4267 5.16 39.64C5.08 40.04 5.18667 40.4267 5.48 40.8C5.77333 41.1733 6.2 41.5467 6.76 41.92C7.69333 42.48 8.66667 43.0533 9.68 43.64C10.6933 44.2267 11.5467 44.8267 12.24 45.44C12.9333 46.0533 13.4 46.7333 13.64 47.48C13.9067 48.2 13.8533 49.0267 13.48 49.96C13.1867 50.68 12.64 51.2667 11.84 51.72C11.04 52.1733 10.16 52.5333 9.2 52.8C8.24 53.04 7.28 53.2133 6.32 53.32C5.36 53.4 4.54667 53.44 3.88 53.44C3.72 53.44 3.52 53.3867 3.28 53.28C3.06667 53.1467 2.85333 53 2.64 52.84C2.45333 52.68 2.28 52.52 2.12 52.36C1.98667 52.1733 1.92 52.0133 1.92 51.88C1.92 51.4 2.13333 51.0667 2.56 50.88C2.98667 50.6933 3.42667 50.6 3.88 50.6C4.52 50.6 5.2 50.5733 5.92 50.52C6.66667 50.44 7.37333 50.3333 8.04 50.2C8.70667 50.04 9.30667 49.84 9.84 49.6C10.3733 49.36 10.7467 49.0533 10.96 48.68C11.1467 48.36 11.0267 47.9867 10.6 47.56C10.2 47.1067 9.65333 46.64 8.96 46.16C8.29333 45.68 7.56 45.2133 6.76 44.76C5.98667 44.3067 5.32 43.8933 4.76 43.52C4.2 43.1467 3.72 42.7067 3.32 42.2C2.92 41.6667 2.66667 41.0133 2.56 40.24C2.53333 39.5467 2.68 38.88 3 38.24C3.32 37.6 3.73333 37.04 4.24 36.56C4.77333 36.0533 5.37333 35.6533 6.04 35.36C6.70667 35.0667 7.37333 34.92 8.04 34.92C9.18667 34.9733 10.1333 35.2933 10.88 35.88C11.6267 36.44 12.0667 37.28 12.2 38.4C12.2 38.7733 12.1333 39.08 12 39.32C11.8933 39.56 11.6933 39.7067 11.4 39.76C11.0267 39.8133 10.72 39.7733 10.48 39.64C10.2667 39.48 10.1467 39.28 10.12 39.04ZM25.8747 41.6C24.8347 42.2133 23.7147 42.6933 22.5147 43.04C21.3147 43.36 20.0214 43.52 18.6347 43.52C18.688 44.4533 18.9547 45.2 19.4347 45.76C19.9147 46.2933 20.5147 46.6133 21.2347 46.72C21.6614 46.7733 22.088 46.76 22.5147 46.68C22.968 46.6 23.3814 46.48 23.7547 46.32C24.1547 46.1333 24.5147 45.9333 24.8347 45.72C25.1547 45.5067 25.4347 45.2933 25.6747 45.08C25.9147 44.8667 26.168 44.7333 26.4347 44.68C26.7014 44.6 26.9014 44.5867 27.0347 44.64C27.408 44.7733 27.5414 45.1733 27.4347 45.84C27.008 46.6933 26.3947 47.4267 25.5947 48.04C24.7947 48.6267 23.9014 49 22.9147 49.16C22.0614 49.32 21.1814 49.28 20.2747 49.04C19.368 48.8 18.5547 48.3333 17.8347 47.64C17.2214 47.0267 16.7547 46.3067 16.4347 45.48C16.1147 44.6533 15.9147 43.8 15.8347 42.92C15.7547 42.0933 15.8214 41.3067 16.0347 40.56C16.2747 39.8133 16.6347 39.16 17.1147 38.6C17.5947 38.0133 18.1947 37.5333 18.9147 37.16C19.6347 36.7867 20.4747 36.5733 21.4347 36.52C22.5814 36.44 23.6214 36.6533 24.5547 37.16C25.488 37.6667 26.1414 38.3733 26.5147 39.28C26.728 39.7867 26.7814 40.2267 26.6747 40.6C26.5947 40.9733 26.328 41.3067 25.8747 41.6ZM21.2747 38.88C21.008 38.9333 20.7147 39.0267 20.3947 39.16C20.1014 39.2933 19.8214 39.4667 19.5547 39.68C19.3147 39.8667 19.088 40.0933 18.8747 40.36C18.688 40.6 18.5814 40.88 18.5547 41.2C19.008 41.2 19.5014 41.16 20.0347 41.08C20.5947 41 21.128 40.9067 21.6347 40.8C22.168 40.6667 22.648 40.52 23.0747 40.36C23.528 40.2 23.9014 40.0267 24.1947 39.84C23.9814 39.3333 23.5814 39.0267 22.9947 38.92C22.4347 38.7867 21.8614 38.7733 21.2747 38.88ZM32.7781 37.8C32.8581 38.2 32.9381 38.6533 33.0181 39.16C33.1248 39.64 33.2315 40.1467 33.3381 40.68C33.4448 41.1867 33.5381 41.7067 33.6181 42.24C33.6981 42.7733 33.7648 43.28 33.8181 43.76C34.1381 43.0667 34.4848 42.3333 34.8581 41.56C35.2315 40.7867 35.6315 40.08 36.0581 39.44C36.5115 38.7733 36.9781 38.2267 37.4581 37.8C37.9648 37.3733 38.5115 37.16 39.0981 37.16C39.9781 37.16 40.7115 37.48 41.2981 38.12C41.9115 38.76 42.4181 39.56 42.8181 40.52C43.2448 41.4533 43.5781 42.44 43.8181 43.48C44.0581 44.52 44.2581 45.44 44.4181 46.24C44.5781 46.96 44.2581 47.4933 43.4581 47.84C43.0848 48.0267 42.8048 48.0533 42.6181 47.92C42.4315 47.7867 42.3248 47.6533 42.2981 47.52C42.1648 47.2 41.9915 46.64 41.7781 45.84C41.5915 45.04 41.3648 44.2267 41.0981 43.4C40.8581 42.5733 40.5781 41.8533 40.2581 41.24C39.9381 40.6267 39.5781 40.3467 39.1781 40.4C38.6981 40.4267 38.2715 40.7867 37.8981 41.48C37.5781 42.04 37.2448 42.6667 36.8981 43.36C36.5781 44.0267 36.2581 44.72 35.9381 45.44C35.6181 46.1333 35.2981 46.84 34.9781 47.56C34.6848 48.2533 34.4048 48.8933 34.1381 49.48C33.9515 49.6667 33.7115 49.8 33.4181 49.88C33.1515 49.9333 32.8715 49.9067 32.5781 49.8C32.3115 49.72 32.0981 49.5867 31.9381 49.4C31.7781 49.2133 31.6981 49.0267 31.6981 48.84C31.4581 46.76 31.2048 44.8667 30.9381 43.16C30.6981 41.4533 30.3781 39.7067 29.9781 37.92C29.7915 37.3067 29.7515 36.8267 29.8581 36.48C29.9915 36.1067 30.3915 35.96 31.0581 36.04C31.9915 36.2 32.5648 36.7867 32.7781 37.8ZM56.2513 40.28C56.7579 40.2533 57.2646 40.3733 57.7713 40.64C58.2779 40.9067 58.5313 41.32 58.5313 41.88C58.4779 42.3333 58.2246 42.6267 57.7713 42.76C57.3446 42.8667 56.9979 42.92 56.7313 42.92C56.1979 42.92 55.6246 42.9333 55.0113 42.96C54.3979 42.9867 53.7713 43.0267 53.1313 43.08C53.0779 43.96 53.0246 44.7867 52.9713 45.56C52.9446 46.3333 52.9179 47.0267 52.8913 47.64C52.8646 48.2267 52.8513 48.7067 52.8513 49.08C52.8513 49.4533 52.8646 49.6533 52.8913 49.68C53.4779 49.5733 54.1046 49.4 54.7713 49.16C55.4646 48.8933 56.1446 48.6133 56.8113 48.32C57.5046 48 58.1713 47.68 58.8113 47.36C59.4779 47.0133 60.1046 46.6933 60.6913 46.4C60.9579 46.2667 61.1979 46.2267 61.4113 46.28C61.6513 46.3333 61.7979 46.4533 61.8513 46.64C61.9046 46.9333 61.8646 47.2933 61.7313 47.72C61.5979 48.1467 61.3579 48.5333 61.0113 48.88C60.6113 49.2 60.0779 49.5733 59.4113 50C58.7713 50.4 58.0779 50.7867 57.3313 51.16C56.5846 51.5333 55.8246 51.8667 55.0513 52.16C54.3046 52.4267 53.6379 52.5867 53.0513 52.64C52.1713 52.72 51.5046 52.48 51.0513 51.92C50.5979 51.36 50.3446 50.6533 50.2913 49.8C50.2379 48.9467 50.2246 47.96 50.2513 46.84C50.3046 45.72 50.3579 44.5333 50.4113 43.28C49.9046 43.3333 49.4113 43.3867 48.9313 43.44C48.4779 43.4667 48.0379 43.5067 47.6113 43.56C47.2646 43.56 46.8779 43.48 46.4513 43.32C46.0513 43.16 45.8513 42.8533 45.8513 42.4C45.8513 42.24 45.9179 42.0267 46.0513 41.76C46.1846 41.4933 46.4779 41.2933 46.9313 41.16C48.0246 40.9733 49.2379 40.8133 50.5713 40.68C50.6513 39.4267 50.7446 38.2133 50.8513 37.04C50.9579 35.8667 51.0513 34.8 51.1313 33.84C51.1579 33.52 51.2513 33.24 51.4112 33C51.5713 32.76 51.7446 32.64 51.9313 32.64C52.3846 32.6133 52.8113 32.7333 53.2113 33C53.6379 33.24 53.8513 33.52 53.8513 33.84C53.7446 34.7467 53.6379 35.7733 53.5313 36.92C53.4513 38.0667 53.3713 39.24 53.2913 40.44C53.8246 40.3867 54.3313 40.36 54.8113 40.36C55.3179 40.3333 55.7979 40.3067 56.2513 40.28ZM70.2194 34.68C70.166 34.9467 69.9794 35.0933 69.6594 35.12C69.3394 35.1467 69.0727 35.16 68.8594 35.16C68.1927 35.1867 67.4994 35.2533 66.7794 35.36C66.086 35.4667 65.3527 35.6267 64.5794 35.84C64.2594 35.9467 63.9127 35.9067 63.5394 35.72C63.166 35.5333 62.9394 35.16 62.8594 34.6C62.8594 34.3867 62.9394 34.2133 63.0994 34.08C63.2594 33.9467 63.446 33.8267 63.6594 33.72C64.006 33.56 64.4194 33.4267 64.8994 33.32C65.3794 33.1867 65.8594 33.0933 66.3394 33.04C66.846 32.9867 67.326 32.9733 67.7794 33C68.2327 33 68.606 33.04 68.8994 33.12C69.326 33.2533 69.6594 33.4533 69.8994 33.72C70.166 33.9867 70.2727 34.3067 70.2194 34.68ZM69.2994 48C69.486 48.4267 69.5794 48.8933 69.5794 49.4C69.606 49.88 69.4727 50.2133 69.1794 50.4C68.806 50.64 68.406 50.6267 67.9794 50.36C67.5527 50.0933 67.2327 49.7333 67.0194 49.28C66.726 48.72 66.4994 48.04 66.3394 47.24C66.1794 46.4133 66.0594 45.6 65.9794 44.8C65.8994 44 65.846 43.2533 65.8194 42.56C65.8194 41.8667 65.8194 41.3467 65.8194 41C65.846 40.6267 65.9527 40.28 66.1394 39.96C66.326 39.64 66.566 39.4533 66.8594 39.4C67.3394 39.4267 67.726 39.6533 68.0194 40.08C68.3127 40.48 68.446 40.9867 68.4194 41.6C68.4194 42.08 68.4327 42.6133 68.4594 43.2C68.486 43.7867 68.5394 44.3733 68.6194 44.96C68.6994 45.5467 68.7927 46.12 68.8994 46.68C69.006 47.2133 69.1394 47.6533 69.2994 48ZM82.8669 41.6C81.8269 42.2133 80.7069 42.6933 79.5069 43.04C78.3069 43.36 77.0135 43.52 75.6269 43.52C75.6802 44.4533 75.9469 45.2 76.4269 45.76C76.9069 46.2933 77.5069 46.6133 78.2269 46.72C78.6535 46.7733 79.0802 46.76 79.5069 46.68C79.9602 46.6 80.3735 46.48 80.7469 46.32C81.1469 46.1333 81.5069 45.9333 81.8269 45.72C82.1469 45.5067 82.4269 45.2933 82.6669 45.08C82.9069 44.8667 83.1602 44.7333 83.4269 44.68C83.6935 44.6 83.8935 44.5867 84.0269 44.64C84.4002 44.7733 84.5335 45.1733 84.4269 45.84C84.0002 46.6933 83.3869 47.4267 82.5869 48.04C81.7869 48.6267 80.8935 49 79.9069 49.16C79.0535 49.32 78.1735 49.28 77.2669 49.04C76.3602 48.8 75.5469 48.3333 74.8269 47.64C74.2135 47.0267 73.7469 46.3067 73.4269 45.48C73.1069 44.6533 72.9069 43.8 72.8269 42.92C72.7469 42.0933 72.8135 41.3067 73.0269 40.56C73.2669 39.8133 73.6269 39.16 74.1069 38.6C74.5869 38.0133 75.1869 37.5333 75.9069 37.16C76.6269 36.7867 77.4669 36.5733 78.4269 36.52C79.5735 36.44 80.6135 36.6533 81.5469 37.16C82.4802 37.6667 83.1335 38.3733 83.5069 39.28C83.7202 39.7867 83.7735 40.2267 83.6669 40.6C83.5869 40.9733 83.3202 41.3067 82.8669 41.6ZM78.2669 38.88C78.0002 38.9333 77.7069 39.0267 77.3869 39.16C77.0935 39.2933 76.8135 39.4667 76.5469 39.68C76.3069 39.8667 76.0802 40.0933 75.8669 40.36C75.6802 40.6 75.5735 40.88 75.5469 41.2C76.0002 41.2 76.4935 41.16 77.0269 41.08C77.5869 41 78.1202 40.9067 78.6269 40.8C79.1602 40.6667 79.6402 40.52 80.0669 40.36C80.5202 40.2 80.8935 40.0267 81.1869 39.84C80.9735 39.3333 80.5735 39.0267 79.9869 38.92C79.4269 38.7867 78.8535 38.7733 78.2669 38.88ZM99.1703 37.2C98.6903 37.4667 98.1836 37.7467 97.6503 38.04C97.1436 38.3333 96.6236 38.68 96.0903 39.08C95.5836 39.4533 95.0903 39.9067 94.6103 40.44C94.157 40.9467 93.7436 41.56 93.3703 42.28C92.837 43.2933 92.477 44.3333 92.2903 45.4C92.1036 46.44 91.9836 47.4667 91.9303 48.48C91.9303 48.96 91.8103 49.4533 91.5703 49.96C91.357 50.44 91.0503 50.68 90.6503 50.68C90.1436 50.68 89.7303 50.4267 89.4103 49.92C89.117 49.3867 88.917 48.88 88.8103 48.4C88.357 46.5067 87.9836 44.64 87.6903 42.8C87.397 40.9333 87.1436 39.08 86.9303 37.24C86.9303 36.8667 87.037 36.6267 87.2503 36.52C87.4903 36.4133 87.757 36.3733 88.0503 36.4C88.3703 36.4267 88.677 36.5067 88.9703 36.64C89.2636 36.7733 89.437 36.9867 89.4903 37.28C89.597 38.2667 89.7303 39.3067 89.8903 40.4C90.0503 41.4667 90.2103 42.3867 90.3703 43.16C90.477 42.2533 90.7703 41.3733 91.2503 40.52C91.7303 39.6667 92.317 38.8933 93.0103 38.2C93.7303 37.5067 94.5303 36.92 95.4103 36.44C96.317 35.96 97.237 35.64 98.1703 35.48C98.5703 35.4267 98.9036 35.4267 99.1703 35.48C99.437 35.5333 99.6236 35.6267 99.7303 35.76C99.837 35.8933 99.8503 36.1067 99.7703 36.4C99.717 36.6933 99.517 36.96 99.1703 37.2ZM109.065 39.04C109.012 38.7467 108.959 38.4667 108.905 38.2C108.852 37.9333 108.719 37.76 108.505 37.68C108.052 37.5467 107.572 37.5333 107.065 37.64C106.559 37.7467 106.092 37.92 105.665 38.16C105.239 38.3733 104.879 38.6267 104.585 38.92C104.292 39.1867 104.132 39.4267 104.105 39.64C104.025 40.04 104.132 40.4267 104.425 40.8C104.719 41.1733 105.145 41.5467 105.705 41.92C106.639 42.48 107.612 43.0533 108.625 43.64C109.639 44.2267 110.492 44.8267 111.185 45.44C111.879 46.0533 112.345 46.7333 112.585 47.48C112.852 48.2 112.799 49.0267 112.425 49.96C112.132 50.68 111.585 51.2667 110.785 51.72C109.985 52.1733 109.105 52.5333 108.145 52.8C107.185 53.04 106.225 53.2133 105.265 53.32C104.305 53.4 103.492 53.44 102.825 53.44C102.665 53.44 102.465 53.3867 102.225 53.28C102.012 53.1467 101.799 53 101.585 52.84C101.399 52.68 101.225 52.52 101.065 52.36C100.932 52.1733 100.865 52.0133 100.865 51.88C100.865 51.4 101.079 51.0667 101.505 50.88C101.932 50.6933 102.372 50.6 102.825 50.6C103.465 50.6 104.145 50.5733 104.865 50.52C105.612 50.44 106.319 50.3333 106.985 50.2C107.652 50.04 108.252 49.84 108.785 49.6C109.319 49.36 109.692 49.0533 109.905 48.68C110.092 48.36 109.972 47.9867 109.545 47.56C109.145 47.1067 108.599 46.64 107.905 46.16C107.239 45.68 106.505 45.2133 105.705 44.76C104.932 44.3067 104.265 43.8933 103.705 43.52C103.145 43.1467 102.665 42.7067 102.265 42.2C101.865 41.6667 101.612 41.0133 101.505 40.24C101.479 39.5467 101.625 38.88 101.945 38.24C102.265 37.6 102.679 37.04 103.185 36.56C103.719 36.0533 104.319 35.6533 104.985 35.36C105.652 35.0667 106.319 34.92 106.985 34.92C108.132 34.9733 109.079 35.2933 109.825 35.88C110.572 36.44 111.012 37.28 111.145 38.4C111.145 38.7733 111.079 39.08 110.945 39.32C110.839 39.56 110.639 39.7067 110.345 39.76C109.972 39.8133 109.665 39.7733 109.425 39.64C109.212 39.48 109.092 39.28 109.065 39.04ZM135.551 37.04C136.351 37.3333 137.018 37.7733 137.551 38.36C138.111 38.9467 138.538 39.6133 138.831 40.36C139.124 41.08 139.284 41.8267 139.311 42.6C139.364 43.3733 139.284 44.0933 139.071 44.76C138.778 45.5067 138.404 46.24 137.951 46.96C137.498 47.68 136.978 48.32 136.391 48.88C135.804 49.44 135.138 49.8933 134.391 50.24C133.644 50.5867 132.818 50.76 131.911 50.76C130.818 50.76 129.898 50.5067 129.151 50C128.404 49.4933 127.818 48.84 127.391 48.04C126.964 47.24 126.684 46.3333 126.551 45.32C126.444 44.3067 126.471 43.2933 126.631 42.28C126.738 41.5333 126.911 40.8133 127.151 40.12C127.418 39.4 127.751 38.7733 128.151 38.24C128.551 37.68 129.004 37.2267 129.511 36.88C130.044 36.5333 130.644 36.36 131.311 36.36C131.684 36.36 132.151 36.44 132.711 36.6C133.271 36.7333 133.791 36.9333 134.271 37.2C134.618 36.88 135.044 36.8267 135.551 37.04ZM134.031 39.96C133.738 39.7733 133.391 39.5333 132.991 39.24C132.618 38.92 132.284 38.76 131.991 38.76C131.671 38.76 131.351 38.9067 131.031 39.2C130.738 39.4933 130.471 39.84 130.231 40.24C130.018 40.6133 129.831 41 129.671 41.4C129.511 41.8 129.404 42.12 129.351 42.36C129.271 42.76 129.218 43.24 129.191 43.8C129.164 44.36 129.204 44.92 129.311 45.48C129.418 46.0133 129.618 46.5067 129.911 46.96C130.231 47.3867 130.698 47.6933 131.311 47.88C131.684 47.9867 132.124 47.9867 132.631 47.88C133.138 47.7467 133.631 47.52 134.111 47.2C134.618 46.88 135.084 46.4533 135.511 45.92C135.964 45.3867 136.311 44.7733 136.551 44.08C136.818 43.3067 136.818 42.5067 136.551 41.68C136.311 40.8267 135.804 40.2133 135.031 39.84C134.844 39.9733 134.658 40.04 134.471 40.04C134.284 40.04 134.138 40.0133 134.031 39.96ZM145.963 39.16C145.803 39.88 145.643 40.68 145.483 41.56C145.323 42.4133 145.203 43.24 145.123 44.04C145.069 44.84 145.069 45.56 145.123 46.2C145.203 46.84 145.376 47.2933 145.643 47.56C146.096 47.64 146.616 47.4533 147.203 47C147.789 46.52 148.363 45.92 148.923 45.2C149.483 44.48 149.989 43.7067 150.443 42.88C150.896 42.0267 151.216 41.28 151.403 40.64C151.509 40.32 151.603 39.9867 151.683 39.64C151.763 39.2933 151.803 38.9333 151.803 38.56C151.803 38.3467 151.936 38.1467 152.203 37.96C152.496 37.7467 152.736 37.6267 152.923 37.6C153.056 37.5733 153.203 37.6 153.363 37.68C153.549 37.76 153.709 37.88 153.843 38.04C154.003 38.1733 154.136 38.3467 154.243 38.56C154.376 38.7467 154.443 38.9467 154.443 39.16C154.496 39.96 154.576 40.84 154.683 41.8C154.789 42.76 154.909 43.72 155.043 44.68C155.203 45.64 155.363 46.5733 155.523 47.48C155.683 48.3867 155.843 49.2 156.003 49.92C156.083 50.2133 156.003 50.5467 155.763 50.92C155.523 51.2933 155.256 51.52 154.963 51.6C154.723 51.6533 154.469 51.6267 154.203 51.52C153.963 51.4133 153.776 51.2 153.643 50.88C153.509 50.5067 153.376 50.0533 153.243 49.52C153.136 48.96 153.029 48.3867 152.923 47.8C152.843 47.1867 152.763 46.6133 152.683 46.08C152.603 45.52 152.549 45.0533 152.523 44.68C152.123 45.4 151.643 46.1333 151.083 46.88C150.549 47.6 149.963 48.2667 149.323 48.88C148.709 49.4667 148.056 49.9333 147.363 50.28C146.696 50.6 146.003 50.72 145.283 50.64C144.216 50.5067 143.403 49.5067 142.843 47.64C142.629 46.8933 142.523 46.0667 142.523 45.16C142.549 44.2533 142.616 43.36 142.723 42.48C142.856 41.5733 143.003 40.72 143.163 39.92C143.349 39.12 143.509 38.4667 143.643 37.96C143.696 37.7467 143.803 37.56 143.963 37.4C144.123 37.2133 144.309 37.1467 144.523 37.2C144.923 37.28 145.283 37.52 145.603 37.92C145.949 38.32 146.069 38.7333 145.963 39.16ZM177.62 39.04C177.567 38.7467 177.513 38.4667 177.46 38.2C177.407 37.9333 177.273 37.76 177.06 37.68C176.607 37.5467 176.127 37.5333 175.62 37.64C175.113 37.7467 174.647 37.92 174.22 38.16C173.793 38.3733 173.433 38.6267 173.14 38.92C172.847 39.1867 172.687 39.4267 172.66 39.64C172.58 40.04 172.687 40.4267 172.98 40.8C173.273 41.1733 173.7 41.5467 174.26 41.92C175.193 42.48 176.167 43.0533 177.18 43.64C178.193 44.2267 179.047 44.8267 179.74 45.44C180.433 46.0533 180.9 46.7333 181.14 47.48C181.407 48.2 181.353 49.0267 180.98 49.96C180.687 50.68 180.14 51.2667 179.34 51.72C178.54 52.1733 177.66 52.5333 176.7 52.8C175.74 53.04 174.78 53.2133 173.82 53.32C172.86 53.4 172.047 53.44 171.38 53.44C171.22 53.44 171.02 53.3867 170.78 53.28C170.567 53.1467 170.353 53 170.14 52.84C169.953 52.68 169.78 52.52 169.62 52.36C169.487 52.1733 169.42 52.0133 169.42 51.88C169.42 51.4 169.633 51.0667 170.06 50.88C170.487 50.6933 170.927 50.6 171.38 50.6C172.02 50.6 172.7 50.5733 173.42 50.52C174.167 50.44 174.873 50.3333 175.54 50.2C176.207 50.04 176.807 49.84 177.34 49.6C177.873 49.36 178.247 49.0533 178.46 48.68C178.647 48.36 178.527 47.9867 178.1 47.56C177.7 47.1067 177.153 46.64 176.46 46.16C175.793 45.68 175.06 45.2133 174.26 44.76C173.487 44.3067 172.82 43.8933 172.26 43.52C171.7 43.1467 171.22 42.7067 170.82 42.2C170.42 41.6667 170.167 41.0133 170.06 40.24C170.033 39.5467 170.18 38.88 170.5 38.24C170.82 37.6 171.233 37.04 171.74 36.56C172.273 36.0533 172.873 35.6533 173.54 35.36C174.207 35.0667 174.873 34.92 175.54 34.92C176.687 34.9733 177.633 35.2933 178.38 35.88C179.127 36.44 179.567 37.28 179.7 38.4C179.7 38.7733 179.633 39.08 179.5 39.32C179.393 39.56 179.193 39.7067 178.9 39.76C178.527 39.8133 178.22 39.7733 177.98 39.64C177.767 39.48 177.647 39.28 177.62 39.04ZM192.895 40.72C192.708 40.8267 192.481 40.8667 192.215 40.84C191.948 40.7867 191.721 40.6133 191.535 40.32C191.108 39.76 190.588 39.48 189.975 39.48C189.415 39.48 188.908 39.6133 188.455 39.88C188.028 40.12 187.641 40.4533 187.295 40.88C186.975 41.28 186.708 41.7333 186.495 42.24C186.281 42.7467 186.135 43.2533 186.055 43.76C185.921 44.6933 186.081 45.48 186.535 46.12C186.988 46.76 187.695 47.08 188.655 47.08C189.428 47.1067 190.295 46.96 191.255 46.64C192.241 46.2933 193.161 45.8533 194.015 45.32C194.388 45.16 194.735 45.0667 195.055 45.04C195.375 45.0133 195.641 45.1733 195.855 45.52C196.121 45.9467 196.055 46.3867 195.655 46.84C195.255 47.2667 194.721 47.6533 194.055 48C193.388 48.3733 192.681 48.7067 191.935 49C191.215 49.2667 190.481 49.4667 189.735 49.6C188.988 49.7067 188.241 49.7067 187.495 49.6C186.775 49.4933 186.095 49.24 185.455 48.84C184.441 48.1467 183.828 47.16 183.615 45.88C183.401 44.6 183.495 43.28 183.895 41.92C184.055 41.4133 184.281 40.9067 184.575 40.4C184.868 39.8667 185.215 39.3867 185.615 38.96C186.041 38.5333 186.508 38.1733 187.015 37.88C187.521 37.56 188.081 37.3467 188.695 37.24C189.681 37.08 190.628 37.1867 191.535 37.56C192.441 37.9067 193.041 38.56 193.335 39.52C193.388 39.7333 193.388 39.96 193.335 40.2C193.281 40.4133 193.135 40.5867 192.895 40.72ZM208.187 36.2C208.294 36.9467 208.374 37.7467 208.427 38.6C208.507 39.4267 208.56 40.2667 208.587 41.12C208.64 41.9733 208.667 42.8 208.667 43.6C208.667 44.4 208.654 45.12 208.627 45.76C209.48 46.3467 209.987 46.8667 210.147 47.32C210.334 47.7733 210.36 48.1733 210.227 48.52C210.067 49 209.774 49.2533 209.347 49.28C208.947 49.28 208.48 49.1333 207.947 48.84C207.574 49.1067 207.147 49.4 206.667 49.72C206.187 50.0133 205.68 50.3067 205.147 50.6C204.614 50.8667 204.08 51.1067 203.547 51.32C203.014 51.5333 202.52 51.68 202.067 51.76C201.214 51.8933 200.44 51.7333 199.747 51.28C199.08 50.8267 198.627 50.1467 198.387 49.24C198.227 48.6267 198.187 48 198.267 47.36C198.347 46.6933 198.547 46.0667 198.867 45.48C199.187 44.8667 199.614 44.32 200.147 43.84C200.707 43.36 201.36 42.9867 202.107 42.72C202.294 42.64 202.547 42.5733 202.867 42.52C203.214 42.4667 203.56 42.4533 203.907 42.48C204.28 42.48 204.654 42.5467 205.027 42.68C205.4 42.8133 205.747 43.04 206.067 43.36C206.067 42.9067 206.054 42.4133 206.027 41.88C206.027 41.32 206.014 40.76 205.987 40.2C205.96 39.64 205.92 39.12 205.867 38.64C205.84 38.1333 205.8 37.7067 205.747 37.36C205.694 36.96 205.534 36.72 205.267 36.64C205.027 36.5333 204.72 36.5467 204.347 36.68C203.707 36.8933 202.96 37.3067 202.107 37.92C201.254 38.5333 200.44 39.1867 199.667 39.88C199.427 40.12 199.147 40.2267 198.827 40.2C198.534 40.1733 198.28 40.0533 198.067 39.84C197.854 39.6267 197.734 39.3867 197.707 39.12C197.68 38.8267 197.787 38.52 198.027 38.2C198.48 37.72 198.987 37.2267 199.547 36.72C200.107 36.2133 200.694 35.76 201.307 35.36C201.92 34.9333 202.547 34.5867 203.187 34.32C203.827 34.0533 204.467 33.9067 205.107 33.88C206.04 33.8533 206.76 34.0667 207.267 34.52C207.774 34.9467 208.08 35.5067 208.187 36.2ZM203.547 44.8C203.2 44.88 202.827 45.0533 202.427 45.32C202.054 45.56 201.707 45.8667 201.387 46.24C201.094 46.5867 200.867 46.9867 200.707 47.44C200.574 47.8667 200.574 48.2933 200.707 48.72C200.76 48.88 200.867 49 201.027 49.08C201.214 49.16 201.414 49.1733 201.627 49.12C202.267 48.9867 202.987 48.7333 203.787 48.36C204.614 47.96 205.267 47.5333 205.747 47.08C205.747 46.92 205.667 46.72 205.507 46.48C205.347 46.2133 205.16 45.96 204.947 45.72C204.734 45.4533 204.494 45.2267 204.227 45.04C203.987 44.8533 203.76 44.7733 203.547 44.8ZM215.122 37.8C215.202 38.2 215.282 38.6533 215.362 39.16C215.469 39.64 215.575 40.1467 215.682 40.68C215.789 41.1867 215.882 41.7067 215.962 42.24C216.042 42.7733 216.109 43.28 216.162 43.76C216.482 43.0667 216.829 42.3333 217.202 41.56C217.575 40.7867 217.975 40.08 218.402 39.44C218.855 38.7733 219.322 38.2267 219.802 37.8C220.309 37.3733 220.855 37.16 221.442 37.16C222.322 37.16 223.055 37.48 223.642 38.12C224.255 38.76 224.762 39.56 225.162 40.52C225.589 41.4533 225.922 42.44 226.162 43.48C226.402 44.52 226.602 45.44 226.762 46.24C226.922 46.96 226.602 47.4933 225.802 47.84C225.429 48.0267 225.149 48.0533 224.962 47.92C224.775 47.7867 224.669 47.6533 224.642 47.52C224.509 47.2 224.335 46.64 224.122 45.84C223.935 45.04 223.709 44.2267 223.442 43.4C223.202 42.5733 222.922 41.8533 222.602 41.24C222.282 40.6267 221.922 40.3467 221.522 40.4C221.042 40.4267 220.615 40.7867 220.242 41.48C219.922 42.04 219.589 42.6667 219.242 43.36C218.922 44.0267 218.602 44.72 218.282 45.44C217.962 46.1333 217.642 46.84 217.322 47.56C217.029 48.2533 216.749 48.8933 216.482 49.48C216.295 49.6667 216.055 49.8 215.762 49.88C215.495 49.9333 215.215 49.9067 214.922 49.8C214.655 49.72 214.442 49.5867 214.282 49.4C214.122 49.2133 214.042 49.0267 214.042 48.84C213.802 46.76 213.549 44.8667 213.282 43.16C213.042 41.4533 212.722 39.7067 212.322 37.92C212.135 37.3067 212.095 36.8267 212.202 36.48C212.335 36.1067 212.735 35.96 213.402 36.04C214.335 36.2 214.909 36.7867 215.122 37.8ZM6.08 69.16C5.92 69.88 5.76 70.68 5.6 71.56C5.44 72.4133 5.32 73.24 5.24 74.04C5.18667 74.84 5.18667 75.56 5.24 76.2C5.32 76.84 5.49333 77.2933 5.76 77.56C6.21333 77.64 6.73333 77.4533 7.32 77C7.90667 76.52 8.48 75.92 9.04 75.2C9.6 74.48 10.1067 73.7067 10.56 72.88C11.0133 72.0267 11.3333 71.28 11.52 70.64C11.6267 70.32 11.72 69.9867 11.8 69.64C11.88 69.2933 11.92 68.9333 11.92 68.56C11.92 68.3467 12.0533 68.1467 12.32 67.96C12.6133 67.7467 12.8533 67.6267 13.04 67.6C13.1733 67.5733 13.32 67.6 13.48 67.68C13.6667 67.76 13.8267 67.88 13.96 68.04C14.12 68.1733 14.2533 68.3467 14.36 68.56C14.4933 68.7467 14.56 68.9467 14.56 69.16C14.6133 69.96 14.6933 70.84 14.8 71.8C14.9067 72.76 15.0267 73.72 15.16 74.68C15.32 75.64 15.48 76.5733 15.64 77.48C15.8 78.3867 15.96 79.2 16.12 79.92C16.2 80.2133 16.12 80.5467 15.88 80.92C15.64 81.2933 15.3733 81.52 15.08 81.6C14.84 81.6533 14.5867 81.6267 14.32 81.52C14.08 81.4133 13.8933 81.2 13.76 80.88C13.6267 80.5067 13.4933 80.0533 13.36 79.52C13.2533 78.96 13.1467 78.3867 13.04 77.8C12.96 77.1867 12.88 76.6133 12.8 76.08C12.72 75.52 12.6667 75.0533 12.64 74.68C12.24 75.4 11.76 76.1333 11.2 76.88C10.6667 77.6 10.08 78.2667 9.44 78.88C8.82667 79.4667 8.17333 79.9333 7.48 80.28C6.81333 80.6 6.12 80.72 5.4 80.64C4.33333 80.5067 3.52 79.5067 2.96 77.64C2.74667 76.8933 2.64 76.0667 2.64 75.16C2.66667 74.2533 2.73333 73.36 2.84 72.48C2.97333 71.5733 3.12 70.72 3.28 69.92C3.46667 69.12 3.62667 68.4667 3.76 67.96C3.81333 67.7467 3.92 67.56 4.08 67.4C4.24 67.2133 4.42667 67.1467 4.64 67.2C5.04 67.28 5.4 67.52 5.72 67.92C6.06667 68.32 6.18667 68.7333 6.08 69.16ZM21.6063 67.8C21.6863 68.2 21.7663 68.6533 21.8463 69.16C21.9529 69.64 22.0596 70.1467 22.1663 70.68C22.2729 71.1867 22.3663 71.7067 22.4463 72.24C22.5263 72.7733 22.5929 73.28 22.6463 73.76C22.9663 73.0667 23.3129 72.3333 23.6863 71.56C24.0596 70.7867 24.4596 70.08 24.8863 69.44C25.3396 68.7733 25.8063 68.2267 26.2863 67.8C26.7929 67.3733 27.3396 67.16 27.9263 67.16C28.8063 67.16 29.5396 67.48 30.1263 68.12C30.7396 68.76 31.2463 69.56 31.6463 70.52C32.0729 71.4533 32.4063 72.44 32.6463 73.48C32.8863 74.52 33.0863 75.44 33.2463 76.24C33.4063 76.96 33.0863 77.4933 32.2863 77.84C31.9129 78.0267 31.6329 78.0533 31.4463 77.92C31.2596 77.7867 31.1529 77.6533 31.1263 77.52C30.9929 77.2 30.8196 76.64 30.6063 75.84C30.4196 75.04 30.1929 74.2267 29.9263 73.4C29.6863 72.5733 29.4063 71.8533 29.0863 71.24C28.7663 70.6267 28.4063 70.3467 28.0063 70.4C27.5263 70.4267 27.0996 70.7867 26.7263 71.48C26.4063 72.04 26.0729 72.6667 25.7263 73.36C25.4063 74.0267 25.0863 74.72 24.7663 75.44C24.4463 76.1333 24.1263 76.84 23.8063 77.56C23.5129 78.2533 23.2329 78.8933 22.9663 79.48C22.7796 79.6667 22.5396 79.8 22.2463 79.88C21.9796 79.9333 21.6996 79.9067 21.4063 79.8C21.1396 79.72 20.9263 79.5867 20.7663 79.4C20.6063 79.2133 20.5263 79.0267 20.5263 78.84C20.2863 76.76 20.0329 74.8667 19.7663 73.16C19.5263 71.4533 19.2063 69.7067 18.8063 67.92C18.6196 67.3067 18.5796 66.8267 18.6863 66.48C18.8196 66.1067 19.2196 65.96 19.8863 66.04C20.8196 66.2 21.3929 66.7867 21.6063 67.8ZM63.0903 76.96C63.3836 77.1733 63.6236 77.5067 63.8103 77.96C63.997 78.4133 63.957 78.8267 63.6903 79.2C63.317 79.5733 62.957 79.7467 62.6103 79.72C62.2636 79.6933 61.9436 79.56 61.6503 79.32C61.357 79.1067 60.997 78.84 60.5703 78.52C60.1703 78.2 59.7036 77.84 59.1703 77.44C58.557 78.1867 57.8903 78.8 57.1703 79.28C56.477 79.76 55.7703 80.12 55.0503 80.36C54.3303 80.6 53.6236 80.72 52.9303 80.72C52.2636 80.72 51.6503 80.6133 51.0903 80.4C50.4236 80.16 49.837 79.7867 49.3303 79.28C48.8236 78.7467 48.4103 78.16 48.0903 77.52C47.7703 76.8533 47.5303 76.16 47.3703 75.44C47.2103 74.72 47.157 74.0267 47.2103 73.36C47.3436 71.6267 47.9436 70 49.0103 68.48C50.1036 66.96 51.397 65.7333 52.8903 64.8C53.157 64.6667 53.477 64.5733 53.8503 64.52C54.2503 64.4667 54.6236 64.4933 54.9703 64.6C55.2903 64.28 55.7303 64.0133 56.2903 63.8C56.8236 63.64 57.3436 63.6267 57.8503 63.76C58.3836 63.8667 58.8636 64.0667 59.2903 64.36C59.7436 64.6533 60.1436 65 60.4903 65.4C60.837 65.8 61.1036 66.2 61.2903 66.6C61.7703 67.6133 61.997 68.88 61.9703 70.4C61.9703 71.92 61.5436 73.4933 60.6903 75.12C61.0903 75.4133 61.4903 75.72 61.8903 76.04C62.2903 76.36 62.6903 76.6667 63.0903 76.96ZM55.0103 66.84C54.797 66.9467 54.5836 67.04 54.3703 67.12C54.1836 67.1733 53.9836 67.2533 53.7703 67.36C53.557 67.4667 53.3303 67.6133 53.0903 67.8C52.8503 67.96 52.6103 68.1867 52.3703 68.48C51.8903 69.04 51.4636 69.6533 51.0903 70.32C50.717 70.96 50.437 71.6267 50.2503 72.32C50.0636 73.0133 49.9836 73.7333 50.0103 74.48C50.0636 75.2267 50.2636 75.9867 50.6103 76.76C50.717 76.9733 50.9036 77.2 51.1703 77.44C51.437 77.68 51.757 77.8667 52.1303 78C52.9036 78.2933 53.7303 78.24 54.6103 77.84C55.4903 77.4133 56.317 76.7733 57.0903 75.92C56.637 75.6 56.1836 75.28 55.7303 74.96C55.277 74.64 54.837 74.3333 54.4103 74.04C54.2503 73.9333 54.0903 73.7733 53.9303 73.56C53.7703 73.3467 53.6503 73.12 53.5703 72.88C53.4903 72.6133 53.4503 72.3467 53.4503 72.08C53.477 71.8133 53.5703 71.5733 53.7303 71.36C53.8903 71.1467 54.1036 71.0133 54.3703 70.96C54.637 70.88 54.957 70.9733 55.3303 71.24C55.8903 71.64 56.4503 72.04 57.0103 72.44C57.5703 72.8133 58.1303 73.2 58.6903 73.6C59.0903 72.8 59.357 71.9467 59.4903 71.04C59.6503 70.1333 59.6103 69.2533 59.3703 68.4C59.2636 68.0267 59.077 67.68 58.8103 67.36C58.5703 67.0133 58.2903 66.7333 57.9703 66.52C57.6503 66.3067 57.3303 66.1867 57.0103 66.16C56.6903 66.1067 56.4103 66.1867 56.1703 66.4C55.957 66.6133 55.757 66.7467 55.5703 66.8C55.3836 66.8533 55.2103 66.8667 55.0503 66.84H55.0103ZM68.565 80.36C68.485 79.3733 68.4183 78.2533 68.365 77C68.3383 75.7467 68.325 74.4667 68.325 73.16C68.325 71.8267 68.325 70.52 68.325 69.24C68.3517 67.96 68.3917 66.8 68.445 65.76C68.445 65.4933 68.565 65.2933 68.805 65.16C69.0717 65 69.285 64.9333 69.445 64.96C69.925 65.0133 70.245 65.1867 70.405 65.48C70.5917 65.7467 70.7117 66.1333 70.765 66.64C70.7383 67.4933 70.7117 68.3467 70.685 69.2C70.685 70.0533 70.6983 70.9067 70.725 71.76C71.925 71.5467 72.925 71.1067 73.725 70.44C74.5517 69.7733 75.1383 69.0133 75.485 68.16C75.6183 67.84 75.7117 67.4533 75.765 67C75.845 66.5467 75.8583 66.0933 75.805 65.64C75.7517 65.16 75.6183 64.72 75.405 64.32C75.2183 63.8933 74.925 63.56 74.525 63.32C73.9383 62.9733 73.2983 62.7867 72.605 62.76C71.9117 62.7333 71.1917 62.84 70.445 63.08C69.725 63.2933 69.005 63.64 68.285 64.12C67.5917 64.6 66.9383 65.1733 66.325 65.84C66.405 66.24 66.3517 66.6 66.165 66.92C65.9783 67.2133 65.7117 67.4267 65.365 67.56C65.1517 67.6133 64.8983 67.5067 64.605 67.24C64.3117 66.9467 64.165 66.6533 64.165 66.36C64.165 65.2933 64.4583 64.3733 65.045 63.6C65.6583 62.8 66.4183 62.1333 67.325 61.6C68.2317 61.0667 69.205 60.6667 70.245 60.4C71.285 60.1333 72.245 60 73.125 60C74.4317 60 75.525 60.3867 76.405 61.16C77.285 61.9067 77.885 62.8533 78.205 64C78.765 66 78.6183 67.8 77.765 69.4C76.9383 71 75.5783 72.3867 73.685 73.56C75.0717 74.4133 76.365 75.2267 77.565 76C78.7917 76.7733 80.0183 77.6133 81.245 78.52C81.405 78.68 81.5783 78.92 81.765 79.24C81.9783 79.5333 81.9517 79.9867 81.685 80.6C81.525 80.9733 81.245 81.1867 80.845 81.24C80.4717 81.2667 80.0983 81.1467 79.725 80.88C79.1383 80.4 78.4717 79.9067 77.725 79.4C77.005 78.8667 76.245 78.3467 75.445 77.84C74.645 77.3067 73.845 76.8 73.045 76.32C72.245 75.8133 71.485 75.3467 70.765 74.92C70.7917 75.9867 70.805 77.0533 70.805 78.12C70.8317 79.16 70.8717 80.1867 70.925 81.2C70.925 81.5733 70.8183 81.84 70.605 82C70.3917 82.1333 70.125 82.2 69.805 82.2C69.645 82.1733 69.4983 82.0933 69.365 81.96C69.2317 81.8 69.0983 81.6267 68.965 81.44C68.8583 81.2267 68.765 81.0267 68.685 80.84C68.605 80.6267 68.565 80.4667 68.565 80.36ZM103.186 66.36C103.292 66.4933 103.346 66.6667 103.346 66.88C103.372 67.0667 103.346 67.2267 103.266 67.36C103.132 67.6533 102.906 67.76 102.586 67.68C102.026 67.5467 101.439 67.4933 100.826 67.52C100.212 67.5467 99.599 67.7867 98.9856 68.24C98.3723 68.6933 97.8923 69.36 97.5456 70.24C97.199 71.0933 97.0256 71.9867 97.0256 72.92C97.0256 73.8267 97.239 74.6133 97.6656 75.28C98.119 75.92 98.6923 76.3867 99.3856 76.68C99.8123 76.8667 100.292 76.9733 100.826 77C101.359 77.0267 101.892 77.0133 102.426 76.96C102.986 76.88 103.532 76.7733 104.066 76.64C104.599 76.48 105.106 76.3067 105.586 76.12C105.746 76.0667 105.892 76.08 106.026 76.16C106.186 76.24 106.292 76.3467 106.346 76.48C106.479 76.8267 106.412 77.1733 106.146 77.52C105.826 77.8667 105.399 78.1733 104.866 78.44C104.332 78.7067 103.746 78.92 103.106 79.08C102.466 79.24 101.812 79.3333 101.146 79.36C100.479 79.36 99.8523 79.28 99.2656 79.12C98.439 78.9067 97.7323 78.6 97.1456 78.2C96.5856 77.7733 96.119 77.2933 95.7456 76.76C95.3723 76.2 95.0923 75.6133 94.9056 75C94.719 74.36 94.6123 73.7067 94.5856 73.04C94.5323 71.44 94.839 70 95.5056 68.72C96.199 67.44 97.159 66.4933 98.3856 65.88C99.2923 65.4267 100.199 65.2533 101.106 65.36C102.039 65.44 102.732 65.7733 103.186 66.36ZM117.856 67.04C118.656 67.3333 119.322 67.7733 119.856 68.36C120.416 68.9467 120.842 69.6133 121.136 70.36C121.429 71.08 121.589 71.8267 121.616 72.6C121.669 73.3733 121.589 74.0933 121.376 74.76C121.082 75.5067 120.709 76.24 120.256 76.96C119.802 77.68 119.282 78.32 118.696 78.88C118.109 79.44 117.442 79.8933 116.696 80.24C115.949 80.5867 115.122 80.76 114.216 80.76C113.122 80.76 112.202 80.5067 111.456 80C110.709 79.4933 110.122 78.84 109.696 78.04C109.269 77.24 108.989 76.3333 108.856 75.32C108.749 74.3067 108.776 73.2933 108.936 72.28C109.042 71.5333 109.216 70.8133 109.456 70.12C109.722 69.4 110.056 68.7733 110.456 68.24C110.856 67.68 111.309 67.2267 111.816 66.88C112.349 66.5333 112.949 66.36 113.616 66.36C113.989 66.36 114.456 66.44 115.016 66.6C115.576 66.7333 116.096 66.9333 116.576 67.2C116.922 66.88 117.349 66.8267 117.856 67.04ZM116.336 69.96C116.042 69.7733 115.696 69.5333 115.296 69.24C114.922 68.92 114.589 68.76 114.296 68.76C113.976 68.76 113.656 68.9067 113.336 69.2C113.042 69.4933 112.776 69.84 112.536 70.24C112.322 70.6133 112.136 71 111.976 71.4C111.816 71.8 111.709 72.12 111.656 72.36C111.576 72.76 111.522 73.24 111.496 73.8C111.469 74.36 111.509 74.92 111.616 75.48C111.722 76.0133 111.922 76.5067 112.216 76.96C112.536 77.3867 113.002 77.6933 113.616 77.88C113.989 77.9867 114.429 77.9867 114.936 77.88C115.442 77.7467 115.936 77.52 116.416 77.2C116.922 76.88 117.389 76.4533 117.816 75.92C118.269 75.3867 118.616 74.7733 118.856 74.08C119.122 73.3067 119.122 72.5067 118.856 71.68C118.616 70.8267 118.109 70.2133 117.336 69.84C117.149 69.9733 116.962 70.04 116.776 70.04C116.589 70.04 116.442 70.0133 116.336 69.96ZM131.588 60.72C131.508 60.24 131.534 59.8 131.668 59.4C131.828 59 132.134 58.7733 132.588 58.72C132.988 58.6667 133.334 58.7733 133.628 59.04C133.948 59.3067 134.148 59.6533 134.228 60.08C134.761 63.1467 135.254 66.2 135.708 69.24C136.188 72.2533 136.614 75.2133 136.988 78.12C137.094 78.8933 137.041 79.4267 136.828 79.72C136.614 79.9867 136.361 80.1867 136.068 80.32C135.748 80.4533 135.441 80.4533 135.148 80.32C134.881 80.1867 134.708 79.9467 134.628 79.6L134.588 79.36L134.428 79.4C133.548 79.72 132.628 79.9067 131.668 79.96C130.708 79.9867 129.788 79.8667 128.908 79.6C128.028 79.3333 127.241 78.9067 126.548 78.32C125.881 77.7067 125.401 76.9333 125.108 76C124.468 73.9467 124.868 72.08 126.308 70.4C126.921 69.7067 127.681 69.08 128.588 68.52C129.494 67.96 130.588 67.52 131.868 67.2L132.588 67.04L131.588 60.72ZM127.548 75C127.708 75.64 128.001 76.1333 128.428 76.48C128.854 76.8267 129.361 77.0667 129.948 77.2C130.534 77.3067 131.161 77.32 131.828 77.24C132.494 77.16 133.148 77.0133 133.788 76.8L134.148 76.68L133.028 69.64L132.228 69.84C131.668 70 131.068 70.2533 130.428 70.6C129.814 70.92 129.268 71.3067 128.788 71.76C128.308 72.2133 127.934 72.72 127.668 73.28C127.428 73.84 127.388 74.4133 127.548 75ZM148.804 71.6C147.764 72.2133 146.644 72.6933 145.444 73.04C144.244 73.36 142.951 73.52 141.564 73.52C141.618 74.4533 141.884 75.2 142.364 75.76C142.844 76.2933 143.444 76.6133 144.164 76.72C144.591 76.7733 145.018 76.76 145.444 76.68C145.898 76.6 146.311 76.48 146.684 76.32C147.084 76.1333 147.444 75.9333 147.764 75.72C148.084 75.5067 148.364 75.2933 148.604 75.08C148.844 74.8667 149.098 74.7333 149.364 74.68C149.631 74.6 149.831 74.5867 149.964 74.64C150.338 74.7733 150.471 75.1733 150.364 75.84C149.938 76.6933 149.324 77.4267 148.524 78.04C147.724 78.6267 146.831 79 145.844 79.16C144.991 79.32 144.111 79.28 143.204 79.04C142.298 78.8 141.484 78.3333 140.764 77.64C140.151 77.0267 139.684 76.3067 139.364 75.48C139.044 74.6533 138.844 73.8 138.764 72.92C138.684 72.0933 138.751 71.3067 138.964 70.56C139.204 69.8133 139.564 69.16 140.044 68.6C140.524 68.0133 141.124 67.5333 141.844 67.16C142.564 66.7867 143.404 66.5733 144.364 66.52C145.511 66.44 146.551 66.6533 147.484 67.16C148.418 67.6667 149.071 68.3733 149.444 69.28C149.658 69.7867 149.711 70.2267 149.604 70.6C149.524 70.9733 149.258 71.3067 148.804 71.6ZM144.204 68.88C143.938 68.9333 143.644 69.0267 143.324 69.16C143.031 69.2933 142.751 69.4667 142.484 69.68C142.244 69.8667 142.018 70.0933 141.804 70.36C141.618 70.6 141.511 70.88 141.484 71.2C141.938 71.2 142.431 71.16 142.964 71.08C143.524 71 144.058 70.9067 144.564 70.8C145.098 70.6667 145.578 70.52 146.004 70.36C146.458 70.2 146.831 70.0267 147.124 69.84C146.911 69.3333 146.511 69.0267 145.924 68.92C145.364 68.7867 144.791 68.7733 144.204 68.88ZM170.679 60.04C170.439 61.2133 170.185 62.3733 169.919 63.52C169.679 64.6667 169.452 65.8133 169.239 66.96C169.025 68.1067 168.865 69.2533 168.759 70.4C168.652 71.5467 168.639 72.6933 168.719 73.84C168.772 74.1333 168.719 74.4133 168.559 74.68C168.425 74.9467 168.265 75.12 168.079 75.2C167.492 75.4133 167.065 75.2667 166.799 74.76C166.479 73.4 166.305 72.0533 166.279 70.72C166.279 69.3867 166.372 68.0667 166.559 66.76C166.772 65.4533 167.039 64.16 167.359 62.88C167.705 61.5733 168.052 60.28 168.399 59C168.532 58.4667 168.745 58.1733 169.039 58.12C169.332 58.0667 169.612 58.0933 169.879 58.2C170.279 58.3333 170.532 58.6 170.639 59C170.745 59.4 170.759 59.7467 170.679 60.04ZM169.079 81.56C169.079 81.8533 169.039 82.2533 168.959 82.76C168.905 83.24 168.799 83.6933 168.639 84.12C168.505 84.5467 168.305 84.8933 168.039 85.16C167.799 85.4267 167.492 85.48 167.119 85.32C166.905 85.1867 166.692 84.9333 166.479 84.56C166.265 84.1867 166.172 83.84 166.199 83.52C166.252 82.88 166.385 82.2533 166.599 81.64C166.812 81.0267 167.092 80.6533 167.439 80.52C167.599 80.4667 167.772 80.4667 167.959 80.52C168.172 80.5733 168.359 80.6667 168.519 80.8C168.679 80.9067 168.812 81.04 168.919 81.2C169.025 81.3333 169.079 81.4533 169.079 81.56Z" fill="#066664" fill-opacity="0.8"/>
</svg>
