<svg width="216" height="85" viewBox="0 0 216 85" fill="none" xmlns="http://www.w3.org/2000/svg">
<path d="M2.8 4.2C2.4 4.36 2.05333 4.37333 1.76 4.24C1.46667 4.10666 1.25333 3.93333 1.12 3.72C0.933333 3.45333 0.88 3.17333 0.96 2.88C1.04 2.58667 1.26667 2.33333 1.64 2.12C2.25333 1.77333 3.02667 1.49333 3.96 1.28C4.89333 1.04 5.89333 0.973331 6.96 1.08C8.02667 1.18666 9 1.48 9.88 1.96C10.7867 2.41333 11.5467 3 12.16 3.72C12.8 4.44 13.28 5.26667 13.6 6.2C13.9467 7.10667 14.1067 8.06667 14.08 9.08C14.0267 10.1467 13.8133 11.2133 13.44 12.28C13.0933 13.3467 12.6 14.3467 11.96 15.28C11.3467 16.2133 10.6 17.0667 9.72 17.84C8.86667 18.5867 7.92 19.1733 6.88 19.6C6.16 19.7867 5.61333 19.8133 5.24 19.68C4.86667 19.5467 4.61333 19.3867 4.48 19.2C4.42667 19.0667 4.4 18.8933 4.4 18.68C4.42667 18.44 4.57333 18.2 4.84 17.96C4.52 15.3733 4.32 12.88 4.24 10.48C4.18667 8.05333 4.16 5.84 4.16 3.84C3.70667 3.92 3.25333 4.04 2.8 4.2ZM7.16 3.68C7 3.65333 6.82667 3.64 6.64 3.64C6.48 3.61333 6.32 3.6 6.16 3.6C6.32 3.81333 6.45333 4.08 6.56 4.4C6.66667 4.69333 6.72 4.98667 6.72 5.28C6.72 6.90667 6.73333 8.65333 6.76 10.52C6.81333 12.3867 6.94667 14.4 7.16 16.56C8.33333 15.7067 9.33333 14.64 10.16 13.36C11.0133 12.0533 11.4667 10.68 11.52 9.24C11.5467 7.90667 11.2133 6.73333 10.52 5.72C9.82667 4.68 8.70667 4 7.16 3.68ZM23.8522 3.68C23.7989 3.94667 23.6122 4.09333 23.2922 4.12C22.9722 4.14667 22.7055 4.16 22.4922 4.16C21.8255 4.18667 21.1322 4.25333 20.4122 4.36C19.7189 4.46667 18.9855 4.62667 18.2122 4.84C17.8922 4.94667 17.5455 4.90667 17.1722 4.72C16.7989 4.53333 16.5722 4.16 16.4922 3.6C16.4922 3.38667 16.5722 3.21333 16.7322 3.08C16.8922 2.94667 17.0789 2.82667 17.2922 2.72C17.6389 2.56 18.0522 2.42667 18.5322 2.32C19.0122 2.18667 19.4922 2.09333 19.9722 2.04C20.4789 1.98667 20.9589 1.97333 21.4122 2C21.8655 2 22.2389 2.04 22.5322 2.12C22.9589 2.25333 23.2922 2.45333 23.5322 2.72C23.7989 2.98666 23.9055 3.30666 23.8522 3.68ZM22.9322 17C23.1189 17.4267 23.2122 17.8933 23.2122 18.4C23.2389 18.88 23.1055 19.2133 22.8122 19.4C22.4389 19.64 22.0389 19.6267 21.6122 19.36C21.1855 19.0933 20.8655 18.7333 20.6522 18.28C20.3589 17.72 20.1322 17.04 19.9722 16.24C19.8122 15.4133 19.6922 14.6 19.6122 13.8C19.5322 13 19.4789 12.2533 19.4522 11.56C19.4522 10.8667 19.4522 10.3467 19.4522 10C19.4789 9.62667 19.5855 9.28 19.7722 8.96C19.9589 8.64 20.1989 8.45333 20.4922 8.4C20.9722 8.42667 21.3589 8.65333 21.6522 9.08C21.9455 9.48 22.0789 9.98667 22.0522 10.6C22.0522 11.08 22.0655 11.6133 22.0922 12.2C22.1189 12.7867 22.1722 13.3733 22.2522 13.96C22.3322 14.5467 22.4255 15.12 22.5322 15.68C22.6389 16.2133 22.7722 16.6533 22.9322 17ZM34.2997 8.04C34.2464 7.74667 34.193 7.46667 34.1397 7.2C34.0864 6.93333 33.953 6.76 33.7397 6.68C33.2864 6.54667 32.8064 6.53333 32.2997 6.64C31.793 6.74667 31.3264 6.92 30.8997 7.16C30.473 7.37333 30.113 7.62667 29.8197 7.92C29.5264 8.18667 29.3664 8.42667 29.3397 8.64C29.2597 9.04 29.3664 9.42667 29.6597 9.8C29.953 10.1733 30.3797 10.5467 30.9397 10.92C31.873 11.48 32.8464 12.0533 33.8597 12.64C34.873 13.2267 35.7264 13.8267 36.4197 14.44C37.113 15.0533 37.5797 15.7333 37.8197 16.48C38.0864 17.2 38.033 18.0267 37.6597 18.96C37.3664 19.68 36.8197 20.2667 36.0197 20.72C35.2197 21.1733 34.3397 21.5333 33.3797 21.8C32.4197 22.04 31.4597 22.2133 30.4997 22.32C29.5397 22.4 28.7264 22.44 28.0597 22.44C27.8997 22.44 27.6997 22.3867 27.4597 22.28C27.2464 22.1467 27.033 22 26.8197 21.84C26.633 21.68 26.4597 21.52 26.2997 21.36C26.1664 21.1733 26.0997 21.0133 26.0997 20.88C26.0997 20.4 26.313 20.0667 26.7397 19.88C27.1664 19.6933 27.6064 19.6 28.0597 19.6C28.6997 19.6 29.3797 19.5733 30.0997 19.52C30.8464 19.44 31.553 19.3333 32.2197 19.2C32.8864 19.04 33.4864 18.84 34.0197 18.6C34.553 18.36 34.9264 18.0533 35.1397 17.68C35.3264 17.36 35.2064 16.9867 34.7797 16.56C34.3797 16.1067 33.833 15.64 33.1397 15.16C32.473 14.68 31.7397 14.2133 30.9397 13.76C30.1664 13.3067 29.4997 12.8933 28.9397 12.52C28.3797 12.1467 27.8997 11.7067 27.4997 11.2C27.0997 10.6667 26.8464 10.0133 26.7397 9.24C26.713 8.54667 26.8597 7.88 27.1797 7.24C27.4997 6.6 27.913 6.04 28.4197 5.56C28.953 5.05333 29.553 4.65333 30.2197 4.36C30.8864 4.06667 31.553 3.92 32.2197 3.92C33.3664 3.97333 34.313 4.29333 35.0597 4.88C35.8064 5.44 36.2464 6.28 36.3797 7.4C36.3797 7.77333 36.313 8.08 36.1797 8.32C36.073 8.56 35.873 8.70667 35.5797 8.76C35.2064 8.81333 34.8997 8.77333 34.6597 8.64C34.4464 8.48 34.3264 8.28 34.2997 8.04ZM49.5744 9.72C49.3877 9.82667 49.161 9.86667 48.8944 9.84C48.6277 9.78667 48.401 9.61333 48.2144 9.32C47.7877 8.76 47.2677 8.48 46.6544 8.48C46.0944 8.48 45.5877 8.61333 45.1344 8.88C44.7077 9.12 44.321 9.45333 43.9744 9.88C43.6544 10.28 43.3877 10.7333 43.1744 11.24C42.961 11.7467 42.8144 12.2533 42.7344 12.76C42.601 13.6933 42.761 14.48 43.2144 15.12C43.6677 15.76 44.3744 16.08 45.3344 16.08C46.1077 16.1067 46.9744 15.96 47.9344 15.64C48.921 15.2933 49.841 14.8533 50.6944 14.32C51.0677 14.16 51.4144 14.0667 51.7344 14.04C52.0544 14.0133 52.321 14.1733 52.5344 14.52C52.801 14.9467 52.7344 15.3867 52.3344 15.84C51.9344 16.2667 51.401 16.6533 50.7344 17C50.0677 17.3733 49.361 17.7067 48.6144 18C47.8944 18.2667 47.161 18.4667 46.4144 18.6C45.6677 18.7067 44.921 18.7067 44.1744 18.6C43.4544 18.4933 42.7744 18.24 42.1344 17.84C41.121 17.1467 40.5077 16.16 40.2944 14.88C40.081 13.6 40.1744 12.28 40.5744 10.92C40.7344 10.4133 40.961 9.90667 41.2544 9.4C41.5477 8.86667 41.8944 8.38667 42.2944 7.96C42.721 7.53333 43.1877 7.17333 43.6944 6.88C44.201 6.56 44.761 6.34667 45.3744 6.24C46.361 6.08 47.3077 6.18667 48.2144 6.56C49.121 6.90667 49.721 7.56 50.0144 8.52C50.0677 8.73333 50.0677 8.96 50.0144 9.2C49.961 9.41333 49.8144 9.58667 49.5744 9.72ZM64.0666 6.04C64.8666 6.33333 65.5332 6.77333 66.0666 7.36C66.6266 7.94667 67.0532 8.61333 67.3466 9.36C67.6399 10.08 67.7999 10.8267 67.8266 11.6C67.8799 12.3733 67.7999 13.0933 67.5866 13.76C67.2932 14.5067 66.9199 15.24 66.4666 15.96C66.0132 16.68 65.4932 17.32 64.9066 17.88C64.3199 18.44 63.6532 18.8933 62.9066 19.24C62.1599 19.5867 61.3332 19.76 60.4266 19.76C59.3332 19.76 58.4132 19.5067 57.6666 19C56.9199 18.4933 56.3332 17.84 55.9066 17.04C55.4799 16.24 55.1999 15.3333 55.0666 14.32C54.9599 13.3067 54.9866 12.2933 55.1466 11.28C55.2532 10.5333 55.4266 9.81333 55.6666 9.12C55.9332 8.4 56.2666 7.77333 56.6666 7.24C57.0666 6.68 57.5199 6.22667 58.0266 5.88C58.5599 5.53333 59.1599 5.36 59.8266 5.36C60.1999 5.36 60.6666 5.44 61.2266 5.6C61.7866 5.73333 62.3066 5.93333 62.7866 6.2C63.1332 5.88 63.5599 5.82667 64.0666 6.04ZM62.5466 8.96C62.2532 8.77333 61.9066 8.53333 61.5066 8.24C61.1332 7.92 60.7999 7.76 60.5066 7.76C60.1866 7.76 59.8666 7.90667 59.5466 8.2C59.2532 8.49333 58.9866 8.84 58.7466 9.24C58.5332 9.61333 58.3466 10 58.1866 10.4C58.0266 10.8 57.9199 11.12 57.8666 11.36C57.7866 11.76 57.7332 12.24 57.7066 12.8C57.6799 13.36 57.7199 13.92 57.8266 14.48C57.9332 15.0133 58.1332 15.5067 58.4266 15.96C58.7466 16.3867 59.2132 16.6933 59.8266 16.88C60.1999 16.9867 60.6399 16.9867 61.1466 16.88C61.6532 16.7467 62.1466 16.52 62.6266 16.2C63.1332 15.88 63.5999 15.4533 64.0266 14.92C64.4799 14.3867 64.8266 13.7733 65.0666 13.08C65.3332 12.3067 65.3332 11.5067 65.0666 10.68C64.8266 9.82667 64.3199 9.21333 63.5466 8.84C63.3599 8.97333 63.1732 9.04 62.9866 9.04C62.7999 9.04 62.6532 9.01333 62.5466 8.96ZM84.5184 5.48C84.0918 6.2 83.6651 6.90667 83.2384 7.6C82.8118 8.29333 82.3451 9.09333 81.8384 10C81.3584 10.88 80.7984 11.9067 80.1584 13.08C79.5184 14.2533 78.7718 15.68 77.9184 17.36C77.7051 17.76 77.4918 18.08 77.2784 18.32C77.0651 18.56 76.8118 18.68 76.5184 18.68C76.1184 18.68 75.7984 18.5733 75.5584 18.36C75.3451 18.12 75.1584 17.8667 74.9984 17.6C74.1184 16.1333 73.2518 14.5067 72.3984 12.72C71.5451 10.9333 70.8518 9.18667 70.3184 7.48C70.2651 7.34667 70.2651 7.2 70.3184 7.04C70.3984 6.85333 70.5051 6.73333 70.6384 6.68C70.9051 6.54667 71.2518 6.53333 71.6784 6.64C71.9984 6.77333 72.3184 7.01333 72.6384 7.36C72.9584 7.70667 73.2118 8.06667 73.3984 8.44C73.5584 8.81333 73.7451 9.24 73.9584 9.72C74.1718 10.2 74.3984 10.72 74.6384 11.28C74.9051 11.8133 75.1718 12.3467 75.4384 12.88C75.7051 13.4133 75.9718 13.8933 76.2384 14.32C76.6918 13.52 77.1718 12.6667 77.6784 11.76C78.2118 10.8267 78.7451 9.89333 79.2784 8.96C79.8118 8 80.3451 7.08 80.8784 6.2C81.4384 5.32 81.9851 4.53333 82.5184 3.84C82.6518 3.65333 82.8384 3.54667 83.0784 3.52C83.3184 3.49333 83.5851 3.58666 83.8784 3.8C84.5451 4.30667 84.7584 4.86667 84.5184 5.48ZM96.8903 10.6C95.8503 11.2133 94.7303 11.6933 93.5303 12.04C92.3303 12.36 91.037 12.52 89.6503 12.52C89.7036 13.4533 89.9703 14.2 90.4503 14.76C90.9303 15.2933 91.5303 15.6133 92.2503 15.72C92.677 15.7733 93.1036 15.76 93.5303 15.68C93.9836 15.6 94.397 15.48 94.7703 15.32C95.1703 15.1333 95.5303 14.9333 95.8503 14.72C96.1703 14.5067 96.4503 14.2933 96.6903 14.08C96.9303 13.8667 97.1836 13.7333 97.4503 13.68C97.717 13.6 97.917 13.5867 98.0503 13.64C98.4236 13.7733 98.557 14.1733 98.4503 14.84C98.0236 15.6933 97.4103 16.4267 96.6103 17.04C95.8103 17.6267 94.917 18 93.9303 18.16C93.077 18.32 92.197 18.28 91.2903 18.04C90.3836 17.8 89.5703 17.3333 88.8503 16.64C88.237 16.0267 87.7703 15.3067 87.4503 14.48C87.1303 13.6533 86.9303 12.8 86.8503 11.92C86.7703 11.0933 86.837 10.3067 87.0503 9.56C87.2903 8.81333 87.6503 8.16 88.1303 7.6C88.6103 7.01333 89.2103 6.53333 89.9303 6.16C90.6503 5.78667 91.4903 5.57333 92.4503 5.52C93.597 5.44 94.637 5.65333 95.5703 6.16C96.5036 6.66667 97.157 7.37333 97.5303 8.28C97.7436 8.78667 97.797 9.22667 97.6903 9.6C97.6103 9.97333 97.3436 10.3067 96.8903 10.6ZM92.2903 7.88C92.0236 7.93333 91.7303 8.02667 91.4103 8.16C91.117 8.29333 90.837 8.46667 90.5703 8.68C90.3303 8.86667 90.1036 9.09333 89.8903 9.36C89.7036 9.6 89.597 9.88 89.5703 10.2C90.0236 10.2 90.517 10.16 91.0503 10.08C91.6103 10 92.1436 9.90667 92.6503 9.8C93.1836 9.66667 93.6636 9.52 94.0903 9.36C94.5436 9.2 94.917 9.02667 95.2103 8.84C94.997 8.33333 94.597 8.02667 94.0103 7.92C93.4503 7.78667 92.877 7.77333 92.2903 7.88ZM113.194 6.2C112.714 6.46667 112.207 6.74667 111.674 7.04C111.167 7.33333 110.647 7.68 110.114 8.08C109.607 8.45333 109.114 8.90667 108.634 9.44C108.18 9.94667 107.767 10.56 107.394 11.28C106.86 12.2933 106.5 13.3333 106.314 14.4C106.127 15.44 106.007 16.4667 105.954 17.48C105.954 17.96 105.834 18.4533 105.594 18.96C105.38 19.44 105.074 19.68 104.674 19.68C104.167 19.68 103.754 19.4267 103.434 18.92C103.14 18.3867 102.94 17.88 102.834 17.4C102.38 15.5067 102.007 13.64 101.714 11.8C101.42 9.93333 101.167 8.08 100.954 6.24C100.954 5.86667 101.06 5.62667 101.274 5.52C101.514 5.41333 101.78 5.37333 102.074 5.4C102.394 5.42667 102.7 5.50667 102.994 5.64C103.287 5.77333 103.46 5.98667 103.514 6.28C103.62 7.26667 103.754 8.30667 103.914 9.4C104.074 10.4667 104.234 11.3867 104.394 12.16C104.5 11.2533 104.794 10.3733 105.274 9.52C105.754 8.66667 106.34 7.89333 107.034 7.2C107.754 6.50667 108.554 5.92 109.434 5.44C110.34 4.96 111.26 4.64 112.194 4.48C112.594 4.42667 112.927 4.42667 113.194 4.48C113.46 4.53333 113.647 4.62667 113.754 4.76C113.86 4.89333 113.874 5.10667 113.794 5.4C113.74 5.69333 113.54 5.96 113.194 6.2ZM135.9 9.28C136.406 9.25333 136.913 9.37333 137.42 9.64C137.926 9.90667 138.18 10.32 138.18 10.88C138.126 11.3333 137.873 11.6267 137.42 11.76C136.993 11.8667 136.646 11.92 136.38 11.92C135.846 11.92 135.273 11.9333 134.66 11.96C134.046 11.9867 133.42 12.0267 132.78 12.08C132.726 12.96 132.673 13.7867 132.62 14.56C132.593 15.3333 132.566 16.0267 132.54 16.64C132.513 17.2267 132.5 17.7067 132.5 18.08C132.5 18.4533 132.513 18.6533 132.54 18.68C133.126 18.5733 133.753 18.4 134.42 18.16C135.113 17.8933 135.793 17.6133 136.46 17.32C137.153 17 137.82 16.68 138.46 16.36C139.126 16.0133 139.753 15.6933 140.34 15.4C140.606 15.2667 140.846 15.2267 141.06 15.28C141.3 15.3333 141.446 15.4533 141.5 15.64C141.553 15.9333 141.513 16.2933 141.38 16.72C141.246 17.1467 141.006 17.5333 140.66 17.88C140.26 18.2 139.726 18.5733 139.06 19C138.42 19.4 137.726 19.7867 136.98 20.16C136.233 20.5333 135.473 20.8667 134.7 21.16C133.953 21.4267 133.286 21.5867 132.7 21.64C131.82 21.72 131.153 21.48 130.7 20.92C130.246 20.36 129.993 19.6533 129.94 18.8C129.886 17.9467 129.873 16.96 129.9 15.84C129.953 14.72 130.006 13.5333 130.06 12.28C129.553 12.3333 129.06 12.3867 128.58 12.44C128.126 12.4667 127.686 12.5067 127.26 12.56C126.913 12.56 126.526 12.48 126.1 12.32C125.7 12.16 125.5 11.8533 125.5 11.4C125.5 11.24 125.566 11.0267 125.7 10.76C125.833 10.4933 126.126 10.2933 126.58 10.16C127.673 9.97333 128.886 9.81333 130.22 9.68C130.3 8.42667 130.393 7.21333 130.5 6.04C130.606 4.86667 130.7 3.8 130.78 2.84C130.806 2.52 130.9 2.24 131.06 2C131.22 1.76 131.393 1.64 131.58 1.64C132.033 1.61333 132.46 1.73333 132.86 2C133.286 2.24 133.5 2.52 133.5 2.84C133.393 3.74667 133.286 4.77333 133.18 5.92C133.1 7.06667 133.02 8.24 132.94 9.44C133.473 9.38667 133.98 9.36 134.46 9.36C134.966 9.33333 135.446 9.30667 135.9 9.28ZM145.948 2.28C145.948 2.92 145.934 3.64 145.908 4.44C145.908 5.24 145.908 6.06667 145.908 6.92C145.934 7.77333 145.948 8.65333 145.948 9.56C145.974 10.4667 146.001 11.3333 146.028 12.16C146.294 11.6267 146.614 11.1067 146.988 10.6C147.361 10.0667 147.774 9.6 148.228 9.2C148.708 8.8 149.201 8.48 149.708 8.24C150.241 8 150.814 7.88 151.428 7.88C152.094 7.88 152.681 8.09333 153.188 8.52C153.721 8.94667 154.174 9.52 154.548 10.24C154.948 10.9333 155.281 11.72 155.548 12.6C155.814 13.4533 156.028 14.3333 156.188 15.24C156.374 16.12 156.508 16.9733 156.588 17.8C156.668 18.6 156.734 19.2933 156.788 19.88C156.788 20.3067 156.681 20.6533 156.468 20.92C156.254 21.1867 156.001 21.32 155.708 21.32C155.494 21.32 155.228 21.1867 154.908 20.92C154.614 20.6267 154.401 20.28 154.268 19.88C154.188 19.56 154.108 19.0933 154.028 18.48C153.948 17.8667 153.854 17.2133 153.748 16.52C153.641 15.8 153.508 15.08 153.348 14.36C153.188 13.64 152.988 13 152.748 12.44C152.534 11.8533 152.268 11.4 151.948 11.08C151.628 10.76 151.254 10.64 150.828 10.72C150.161 10.8533 149.574 11.32 149.068 12.12C148.588 12.92 148.161 13.8267 147.788 14.84C147.441 15.8533 147.148 16.88 146.908 17.92C146.694 18.96 146.534 19.8 146.428 20.44C146.321 20.92 146.174 21.2533 145.988 21.44C145.828 21.6 145.641 21.68 145.428 21.68C145.214 21.68 145.014 21.5733 144.828 21.36C144.668 21.1467 144.508 20.8933 144.348 20.6C144.214 20.28 144.094 19.96 143.988 19.64C143.881 19.2933 143.814 19 143.788 18.76C143.654 17.32 143.548 15.9467 143.468 14.64C143.388 13.3067 143.321 11.9733 143.268 10.64C143.241 9.30667 143.228 7.94667 143.228 6.56C143.228 5.14667 143.254 3.64 143.308 2.04C143.308 0.706666 143.788 0.106666 144.748 0.239999C145.068 0.293332 145.348 0.533332 145.588 0.96C145.828 1.36 145.948 1.8 145.948 2.28ZM169.351 10.6C168.311 11.2133 167.191 11.6933 165.991 12.04C164.791 12.36 163.498 12.52 162.111 12.52C162.165 13.4533 162.431 14.2 162.911 14.76C163.391 15.2933 163.991 15.6133 164.711 15.72C165.138 15.7733 165.565 15.76 165.991 15.68C166.445 15.6 166.858 15.48 167.231 15.32C167.631 15.1333 167.991 14.9333 168.311 14.72C168.631 14.5067 168.911 14.2933 169.151 14.08C169.391 13.8667 169.645 13.7333 169.911 13.68C170.178 13.6 170.378 13.5867 170.511 13.64C170.885 13.7733 171.018 14.1733 170.911 14.84C170.485 15.6933 169.871 16.4267 169.071 17.04C168.271 17.6267 167.378 18 166.391 18.16C165.538 18.32 164.658 18.28 163.751 18.04C162.845 17.8 162.031 17.3333 161.311 16.64C160.698 16.0267 160.231 15.3067 159.911 14.48C159.591 13.6533 159.391 12.8 159.311 11.92C159.231 11.0933 159.298 10.3067 159.511 9.56C159.751 8.81333 160.111 8.16 160.591 7.6C161.071 7.01333 161.671 6.53333 162.391 6.16C163.111 5.78667 163.951 5.57333 164.911 5.52C166.058 5.44 167.098 5.65333 168.031 6.16C168.965 6.66667 169.618 7.37333 169.991 8.28C170.205 8.78667 170.258 9.22667 170.151 9.6C170.071 9.97333 169.805 10.3067 169.351 10.6ZM164.751 7.88C164.485 7.93333 164.191 8.02667 163.871 8.16C163.578 8.29333 163.298 8.46667 163.031 8.68C162.791 8.86667 162.565 9.09333 162.351 9.36C162.165 9.6 162.058 9.88 162.031 10.2C162.485 10.2 162.978 10.16 163.511 10.08C164.071 10 164.605 9.90667 165.111 9.8C165.645 9.66667 166.125 9.52 166.551 9.36C167.005 9.2 167.378 9.02667 167.671 8.84C167.458 8.33333 167.058 8.02667 166.471 7.92C165.911 7.78667 165.338 7.77333 164.751 7.88ZM11.72 39.28C12.2267 39.2533 12.7333 39.3733 13.24 39.64C13.7467 39.9067 14 40.32 14 40.88C13.9467 41.3333 13.6933 41.6267 13.24 41.76C12.8133 41.8667 12.4667 41.92 12.2 41.92C11.6667 41.92 11.0933 41.9333 10.48 41.96C9.86667 41.9867 9.24 42.0267 8.6 42.08C8.54667 42.96 8.49333 43.7867 8.44 44.56C8.41333 45.3333 8.38667 46.0267 8.36 46.64C8.33333 47.2267 8.32 47.7067 8.32 48.08C8.32 48.4533 8.33333 48.6533 8.36 48.68C8.94667 48.5733 9.57333 48.4 10.24 48.16C10.9333 47.8933 11.6133 47.6133 12.28 47.32C12.9733 47 13.64 46.68 14.28 46.36C14.9467 46.0133 15.5733 45.6933 16.16 45.4C16.4267 45.2667 16.6667 45.2267 16.88 45.28C17.12 45.3333 17.2667 45.4533 17.32 45.64C17.3733 45.9333 17.3333 46.2933 17.2 46.72C17.0667 47.1467 16.8267 47.5333 16.48 47.88C16.08 48.2 15.5467 48.5733 14.88 49C14.24 49.4 13.5467 49.7867 12.8 50.16C12.0533 50.5333 11.2933 50.8667 10.52 51.16C9.77333 51.4267 9.10667 51.5867 8.52 51.64C7.64 51.72 6.97333 51.48 6.52 50.92C6.06667 50.36 5.81333 49.6533 5.76 48.8C5.70667 47.9467 5.69333 46.96 5.72 45.84C5.77333 44.72 5.82667 43.5333 5.88 42.28C5.37333 42.3333 4.88 42.3867 4.4 42.44C3.94667 42.4667 3.50667 42.5067 3.08 42.56C2.73333 42.56 2.34667 42.48 1.92 42.32C1.52 42.16 1.32 41.8533 1.32 41.4C1.32 41.24 1.38667 41.0267 1.52 40.76C1.65333 40.4933 1.94667 40.2933 2.4 40.16C3.49333 39.9733 4.70667 39.8133 6.04 39.68C6.12 38.4267 6.21333 37.2133 6.32 36.04C6.42667 34.8667 6.52 33.8 6.6 32.84C6.62667 32.52 6.72 32.24 6.88 32C7.04 31.76 7.21333 31.64 7.4 31.64C7.85333 31.6133 8.28 31.7333 8.68 32C9.10667 32.24 9.32 32.52 9.32 32.84C9.21333 33.7467 9.10667 34.7733 9 35.92C8.92 37.0667 8.84 38.24 8.76 39.44C9.29333 39.3867 9.8 39.36 10.28 39.36C10.7867 39.3333 11.2667 39.3067 11.72 39.28ZM30.9281 36.2C30.4481 36.4667 29.9415 36.7467 29.4081 37.04C28.9015 37.3333 28.3815 37.68 27.8481 38.08C27.3415 38.4533 26.8481 38.9067 26.3681 39.44C25.9148 39.9467 25.5015 40.56 25.1281 41.28C24.5948 42.2933 24.2348 43.3333 24.0481 44.4C23.8615 45.44 23.7415 46.4667 23.6881 47.48C23.6881 47.96 23.5681 48.4533 23.3281 48.96C23.1148 49.44 22.8081 49.68 22.4081 49.68C21.9015 49.68 21.4881 49.4267 21.1681 48.92C20.8748 48.3867 20.6748 47.88 20.5681 47.4C20.1148 45.5067 19.7415 43.64 19.4481 41.8C19.1548 39.9333 18.9015 38.08 18.6881 36.24C18.6881 35.8667 18.7948 35.6267 19.0081 35.52C19.2481 35.4133 19.5148 35.3733 19.8081 35.4C20.1281 35.4267 20.4348 35.5067 20.7281 35.64C21.0215 35.7733 21.1948 35.9867 21.2481 36.28C21.3548 37.2667 21.4881 38.3067 21.6481 39.4C21.8081 40.4667 21.9681 41.3867 22.1281 42.16C22.2348 41.2533 22.5281 40.3733 23.0081 39.52C23.4881 38.6667 24.0748 37.8933 24.7681 37.2C25.4881 36.5067 26.2881 35.92 27.1681 35.44C28.0748 34.96 28.9948 34.64 29.9281 34.48C30.3281 34.4267 30.6615 34.4267 30.9281 34.48C31.1948 34.5333 31.3815 34.6267 31.4881 34.76C31.5948 34.8933 31.6081 35.1067 31.5281 35.4C31.4748 35.6933 31.2748 35.96 30.9281 36.2ZM43.3431 35.2C43.4498 35.9467 43.5298 36.7467 43.5831 37.6C43.6631 38.4267 43.7165 39.2667 43.7431 40.12C43.7965 40.9733 43.8231 41.8 43.8231 42.6C43.8231 43.4 43.8098 44.12 43.7831 44.76C44.6365 45.3467 45.1431 45.8667 45.3031 46.32C45.4898 46.7733 45.5165 47.1733 45.3831 47.52C45.2231 48 44.9298 48.2533 44.5031 48.28C44.1031 48.28 43.6365 48.1333 43.1031 47.84C42.7298 48.1067 42.3031 48.4 41.8231 48.72C41.3431 49.0133 40.8365 49.3067 40.3031 49.6C39.7698 49.8667 39.2365 50.1067 38.7031 50.32C38.1698 50.5333 37.6765 50.68 37.2231 50.76C36.3698 50.8933 35.5965 50.7333 34.9031 50.28C34.2365 49.8267 33.7831 49.1467 33.5431 48.24C33.3831 47.6267 33.3431 47 33.4231 46.36C33.5031 45.6933 33.7031 45.0667 34.0231 44.48C34.3431 43.8667 34.7698 43.32 35.3031 42.84C35.8631 42.36 36.5165 41.9867 37.2631 41.72C37.4498 41.64 37.7031 41.5733 38.0231 41.52C38.3698 41.4667 38.7165 41.4533 39.0631 41.48C39.4365 41.48 39.8098 41.5467 40.1831 41.68C40.5565 41.8133 40.9031 42.04 41.2231 42.36C41.2231 41.9067 41.2098 41.4133 41.1831 40.88C41.1831 40.32 41.1698 39.76 41.1431 39.2C41.1165 38.64 41.0765 38.12 41.0231 37.64C40.9965 37.1333 40.9565 36.7067 40.9031 36.36C40.8498 35.96 40.6898 35.72 40.4231 35.64C40.1831 35.5333 39.8765 35.5467 39.5031 35.68C38.8631 35.8933 38.1165 36.3067 37.2631 36.92C36.4098 37.5333 35.5965 38.1867 34.8231 38.88C34.5831 39.12 34.3031 39.2267 33.9831 39.2C33.6898 39.1733 33.4365 39.0533 33.2231 38.84C33.0098 38.6267 32.8898 38.3867 32.8631 38.12C32.8365 37.8267 32.9431 37.52 33.1831 37.2C33.6365 36.72 34.1431 36.2267 34.7031 35.72C35.2631 35.2133 35.8498 34.76 36.4631 34.36C37.0765 33.9333 37.7031 33.5867 38.3431 33.32C38.9831 33.0533 39.6231 32.9067 40.2631 32.88C41.1965 32.8533 41.9165 33.0667 42.4231 33.52C42.9298 33.9467 43.2365 34.5067 43.3431 35.2ZM38.7031 43.8C38.3565 43.88 37.9831 44.0533 37.5831 44.32C37.2098 44.56 36.8631 44.8667 36.5431 45.24C36.2498 45.5867 36.0231 45.9867 35.8631 46.44C35.7298 46.8667 35.7298 47.2933 35.8631 47.72C35.9165 47.88 36.0231 48 36.1831 48.08C36.3698 48.16 36.5698 48.1733 36.7831 48.12C37.4231 47.9867 38.1431 47.7333 38.9431 47.36C39.7698 46.96 40.4231 46.5333 40.9031 46.08C40.9031 45.92 40.8231 45.72 40.6631 45.48C40.5031 45.2133 40.3165 44.96 40.1031 44.72C39.8898 44.4533 39.6498 44.2267 39.3831 44.04C39.1431 43.8533 38.9165 43.7733 38.7031 43.8ZM54.4381 33.68C54.3848 33.9467 54.1981 34.0933 53.8781 34.12C53.5581 34.1467 53.2915 34.16 53.0781 34.16C52.4115 34.1867 51.7181 34.2533 50.9981 34.36C50.3048 34.4667 49.5715 34.6267 48.7981 34.84C48.4781 34.9467 48.1315 34.9067 47.7581 34.72C47.3848 34.5333 47.1581 34.16 47.0781 33.6C47.0781 33.3867 47.1581 33.2133 47.3181 33.08C47.4781 32.9467 47.6648 32.8267 47.8781 32.72C48.2248 32.56 48.6381 32.4267 49.1181 32.32C49.5981 32.1867 50.0781 32.0933 50.5581 32.04C51.0648 31.9867 51.5448 31.9733 51.9981 32C52.4515 32 52.8248 32.04 53.1181 32.12C53.5448 32.2533 53.8781 32.4533 54.1181 32.72C54.3848 32.9867 54.4915 33.3067 54.4381 33.68ZM53.5181 47C53.7048 47.4267 53.7981 47.8933 53.7981 48.4C53.8248 48.88 53.6915 49.2133 53.3981 49.4C53.0248 49.64 52.6248 49.6267 52.1981 49.36C51.7715 49.0933 51.4515 48.7333 51.2381 48.28C50.9448 47.72 50.7181 47.04 50.5581 46.24C50.3981 45.4133 50.2781 44.6 50.1981 43.8C50.1181 43 50.0648 42.2533 50.0381 41.56C50.0381 40.8667 50.0381 40.3467 50.0381 40C50.0648 39.6267 50.1715 39.28 50.3581 38.96C50.5448 38.64 50.7848 38.4533 51.0781 38.4C51.5581 38.4267 51.9448 38.6533 52.2381 39.08C52.5315 39.48 52.6648 39.9867 52.6381 40.6C52.6381 41.08 52.6515 41.6133 52.6781 42.2C52.7048 42.7867 52.7581 43.3733 52.8381 43.96C52.9181 44.5467 53.0115 45.12 53.1181 45.68C53.2248 46.2133 53.3581 46.6533 53.5181 47ZM60.7656 31.28C60.899 34.1867 61.1256 37.2 61.4456 40.32C61.7656 43.4133 62.1123 46.3733 62.4856 49.2C62.5656 50.3733 62.2456 50.9733 61.5256 51C61.3656 51 61.2056 50.9467 61.0456 50.84C60.8856 50.7067 60.739 50.5467 60.6056 50.36C60.4723 50.1733 60.339 49.9733 60.2056 49.76C60.099 49.5467 60.0323 49.36 60.0056 49.2C59.7923 47.84 59.5923 46.4 59.4056 44.88C59.219 43.36 59.0456 41.84 58.8856 40.32C58.7523 38.7733 58.6323 37.2667 58.5256 35.8C58.419 34.3333 58.3523 32.9867 58.3256 31.76C58.379 31.12 58.4723 30.5867 58.6056 30.16C58.739 29.7067 59.019 29.4933 59.4456 29.52C59.899 29.5467 60.219 29.7333 60.4056 30.08C60.619 30.4 60.739 30.8 60.7656 31.28ZM73.245 38.04C73.1917 37.7467 73.1383 37.4667 73.085 37.2C73.0317 36.9333 72.8983 36.76 72.685 36.68C72.2317 36.5467 71.7517 36.5333 71.245 36.64C70.7383 36.7467 70.2717 36.92 69.845 37.16C69.4183 37.3733 69.0583 37.6267 68.765 37.92C68.4717 38.1867 68.3117 38.4267 68.285 38.64C68.205 39.04 68.3117 39.4267 68.605 39.8C68.8983 40.1733 69.325 40.5467 69.885 40.92C70.8183 41.48 71.7917 42.0533 72.805 42.64C73.8183 43.2267 74.6717 43.8267 75.365 44.44C76.0583 45.0533 76.525 45.7333 76.765 46.48C77.0317 47.2 76.9783 48.0267 76.605 48.96C76.3117 49.68 75.765 50.2667 74.965 50.72C74.165 51.1733 73.285 51.5333 72.325 51.8C71.365 52.04 70.405 52.2133 69.445 52.32C68.485 52.4 67.6717 52.44 67.005 52.44C66.845 52.44 66.645 52.3867 66.405 52.28C66.1917 52.1467 65.9783 52 65.765 51.84C65.5783 51.68 65.405 51.52 65.245 51.36C65.1117 51.1733 65.045 51.0133 65.045 50.88C65.045 50.4 65.2583 50.0667 65.685 49.88C66.1117 49.6933 66.5517 49.6 67.005 49.6C67.645 49.6 68.325 49.5733 69.045 49.52C69.7917 49.44 70.4983 49.3333 71.165 49.2C71.8317 49.04 72.4317 48.84 72.965 48.6C73.4983 48.36 73.8717 48.0533 74.085 47.68C74.2717 47.36 74.1517 46.9867 73.725 46.56C73.325 46.1067 72.7783 45.64 72.085 45.16C71.4183 44.68 70.685 44.2133 69.885 43.76C69.1117 43.3067 68.445 42.8933 67.885 42.52C67.325 42.1467 66.845 41.7067 66.445 41.2C66.045 40.6667 65.7917 40.0133 65.685 39.24C65.6583 38.5467 65.805 37.88 66.125 37.24C66.445 36.6 66.8583 36.04 67.365 35.56C67.8983 35.0533 68.4983 34.6533 69.165 34.36C69.8317 34.0667 70.4983 33.92 71.165 33.92C72.3117 33.9733 73.2583 34.2933 74.005 34.88C74.7517 35.44 75.1917 36.28 75.325 37.4C75.325 37.7733 75.2583 38.08 75.125 38.32C75.0183 38.56 74.8183 38.7067 74.525 38.76C74.1517 38.8133 73.845 38.7733 73.605 38.64C73.3917 38.48 73.2717 38.28 73.245 38.04ZM99.7306 36.04C100.531 36.3333 101.197 36.7733 101.731 37.36C102.291 37.9467 102.717 38.6133 103.011 39.36C103.304 40.08 103.464 40.8267 103.491 41.6C103.544 42.3733 103.464 43.0933 103.251 43.76C102.957 44.5067 102.584 45.24 102.131 45.96C101.677 46.68 101.157 47.32 100.571 47.88C99.984 48.44 99.3173 48.8933 98.5706 49.24C97.824 49.5867 96.9973 49.76 96.0906 49.76C94.9973 49.76 94.0773 49.5067 93.3306 49C92.584 48.4933 91.9973 47.84 91.5706 47.04C91.144 46.24 90.864 45.3333 90.7306 44.32C90.624 43.3067 90.6506 42.2933 90.8106 41.28C90.9173 40.5333 91.0906 39.8133 91.3306 39.12C91.5973 38.4 91.9306 37.7733 92.3306 37.24C92.7306 36.68 93.184 36.2267 93.6906 35.88C94.224 35.5333 94.824 35.36 95.4906 35.36C95.864 35.36 96.3306 35.44 96.8906 35.6C97.4506 35.7333 97.9706 35.9333 98.4506 36.2C98.7973 35.88 99.224 35.8267 99.7306 36.04ZM98.2106 38.96C97.9173 38.7733 97.5706 38.5333 97.1706 38.24C96.7973 37.92 96.464 37.76 96.1706 37.76C95.8506 37.76 95.5306 37.9067 95.2106 38.2C94.9173 38.4933 94.6506 38.84 94.4106 39.24C94.1973 39.6133 94.0106 40 93.8506 40.4C93.6906 40.8 93.584 41.12 93.5306 41.36C93.4506 41.76 93.3973 42.24 93.3706 42.8C93.344 43.36 93.384 43.92 93.4906 44.48C93.5973 45.0133 93.7973 45.5067 94.0906 45.96C94.4106 46.3867 94.8773 46.6933 95.4906 46.88C95.864 46.9867 96.304 46.9867 96.8106 46.88C97.3173 46.7467 97.8106 46.52 98.2906 46.2C98.7973 45.88 99.264 45.4533 99.6906 44.92C100.144 44.3867 100.491 43.7733 100.731 43.08C100.997 42.3067 100.997 41.5067 100.731 40.68C100.491 39.8267 99.984 39.2133 99.2106 38.84C99.024 38.9733 98.8373 39.04 98.6506 39.04C98.464 39.04 98.3173 39.0133 98.2106 38.96ZM118.663 36.2C118.183 36.4667 117.676 36.7467 117.143 37.04C116.636 37.3333 116.116 37.68 115.583 38.08C115.076 38.4533 114.583 38.9067 114.103 39.44C113.649 39.9467 113.236 40.56 112.863 41.28C112.329 42.2933 111.969 43.3333 111.783 44.4C111.596 45.44 111.476 46.4667 111.423 47.48C111.423 47.96 111.303 48.4533 111.063 48.96C110.849 49.44 110.543 49.68 110.143 49.68C109.636 49.68 109.223 49.4267 108.903 48.92C108.609 48.3867 108.409 47.88 108.303 47.4C107.849 45.5067 107.476 43.64 107.183 41.8C106.889 39.9333 106.636 38.08 106.423 36.24C106.423 35.8667 106.529 35.6267 106.743 35.52C106.983 35.4133 107.249 35.3733 107.543 35.4C107.863 35.4267 108.169 35.5067 108.463 35.64C108.756 35.7733 108.929 35.9867 108.983 36.28C109.089 37.2667 109.223 38.3067 109.383 39.4C109.543 40.4667 109.703 41.3867 109.863 42.16C109.969 41.2533 110.263 40.3733 110.743 39.52C111.223 38.6667 111.809 37.8933 112.503 37.2C113.223 36.5067 114.023 35.92 114.903 35.44C115.809 34.96 116.729 34.64 117.663 34.48C118.063 34.4267 118.396 34.4267 118.663 34.48C118.929 34.5333 119.116 34.6267 119.223 34.76C119.329 34.8933 119.343 35.1067 119.263 35.4C119.209 35.6933 119.009 35.96 118.663 36.2ZM139.768 38.04C139.715 37.7467 139.662 37.4667 139.608 37.2C139.555 36.9333 139.422 36.76 139.208 36.68C138.755 36.5467 138.275 36.5333 137.768 36.64C137.262 36.7467 136.795 36.92 136.368 37.16C135.942 37.3733 135.582 37.6267 135.288 37.92C134.995 38.1867 134.835 38.4267 134.808 38.64C134.728 39.04 134.835 39.4267 135.128 39.8C135.422 40.1733 135.848 40.5467 136.408 40.92C137.342 41.48 138.315 42.0533 139.328 42.64C140.342 43.2267 141.195 43.8267 141.888 44.44C142.582 45.0533 143.048 45.7333 143.288 46.48C143.555 47.2 143.502 48.0267 143.128 48.96C142.835 49.68 142.288 50.2667 141.488 50.72C140.688 51.1733 139.808 51.5333 138.848 51.8C137.888 52.04 136.928 52.2133 135.968 52.32C135.008 52.4 134.195 52.44 133.528 52.44C133.368 52.44 133.168 52.3867 132.928 52.28C132.715 52.1467 132.502 52 132.288 51.84C132.102 51.68 131.928 51.52 131.768 51.36C131.635 51.1733 131.568 51.0133 131.568 50.88C131.568 50.4 131.782 50.0667 132.208 49.88C132.635 49.6933 133.075 49.6 133.528 49.6C134.168 49.6 134.848 49.5733 135.568 49.52C136.315 49.44 137.022 49.3333 137.688 49.2C138.355 49.04 138.955 48.84 139.488 48.6C140.022 48.36 140.395 48.0533 140.608 47.68C140.795 47.36 140.675 46.9867 140.248 46.56C139.848 46.1067 139.302 45.64 138.608 45.16C137.942 44.68 137.208 44.2133 136.408 43.76C135.635 43.3067 134.968 42.8933 134.408 42.52C133.848 42.1467 133.368 41.7067 132.968 41.2C132.568 40.6667 132.315 40.0133 132.208 39.24C132.182 38.5467 132.328 37.88 132.648 37.24C132.968 36.6 133.382 36.04 133.888 35.56C134.422 35.0533 135.022 34.6533 135.688 34.36C136.355 34.0667 137.022 33.92 137.688 33.92C138.835 33.9733 139.782 34.2933 140.528 34.88C141.275 35.44 141.715 36.28 141.848 37.4C141.848 37.7733 141.782 38.08 141.648 38.32C141.542 38.56 141.342 38.7067 141.048 38.76C140.675 38.8133 140.368 38.7733 140.128 38.64C139.915 38.48 139.795 38.28 139.768 38.04ZM155.043 39.72C154.856 39.8267 154.63 39.8667 154.363 39.84C154.096 39.7867 153.87 39.6133 153.683 39.32C153.256 38.76 152.736 38.48 152.123 38.48C151.563 38.48 151.056 38.6133 150.603 38.88C150.176 39.12 149.79 39.4533 149.443 39.88C149.123 40.28 148.856 40.7333 148.643 41.24C148.43 41.7467 148.283 42.2533 148.203 42.76C148.07 43.6933 148.23 44.48 148.683 45.12C149.136 45.76 149.843 46.08 150.803 46.08C151.576 46.1067 152.443 45.96 153.403 45.64C154.39 45.2933 155.31 44.8533 156.163 44.32C156.536 44.16 156.883 44.0667 157.203 44.04C157.523 44.0133 157.79 44.1733 158.003 44.52C158.27 44.9467 158.203 45.3867 157.803 45.84C157.403 46.2667 156.87 46.6533 156.203 47C155.536 47.3733 154.83 47.7067 154.083 48C153.363 48.2667 152.63 48.4667 151.883 48.6C151.136 48.7067 150.39 48.7067 149.643 48.6C148.923 48.4933 148.243 48.24 147.603 47.84C146.59 47.1467 145.976 46.16 145.763 44.88C145.55 43.6 145.643 42.28 146.043 40.92C146.203 40.4133 146.43 39.9067 146.723 39.4C147.016 38.8667 147.363 38.3867 147.763 37.96C148.19 37.5333 148.656 37.1733 149.163 36.88C149.67 36.56 150.23 36.3467 150.843 36.24C151.83 36.08 152.776 36.1867 153.683 36.56C154.59 36.9067 155.19 37.56 155.483 38.52C155.536 38.7333 155.536 38.96 155.483 39.2C155.43 39.4133 155.283 39.5867 155.043 39.72ZM170.335 35.2C170.442 35.9467 170.522 36.7467 170.575 37.6C170.655 38.4267 170.709 39.2667 170.735 40.12C170.789 40.9733 170.815 41.8 170.815 42.6C170.815 43.4 170.802 44.12 170.775 44.76C171.629 45.3467 172.135 45.8667 172.295 46.32C172.482 46.7733 172.509 47.1733 172.375 47.52C172.215 48 171.922 48.2533 171.495 48.28C171.095 48.28 170.629 48.1333 170.095 47.84C169.722 48.1067 169.295 48.4 168.815 48.72C168.335 49.0133 167.829 49.3067 167.295 49.6C166.762 49.8667 166.229 50.1067 165.695 50.32C165.162 50.5333 164.669 50.68 164.215 50.76C163.362 50.8933 162.589 50.7333 161.895 50.28C161.229 49.8267 160.775 49.1467 160.535 48.24C160.375 47.6267 160.335 47 160.415 46.36C160.495 45.6933 160.695 45.0667 161.015 44.48C161.335 43.8667 161.762 43.32 162.295 42.84C162.855 42.36 163.509 41.9867 164.255 41.72C164.442 41.64 164.695 41.5733 165.015 41.52C165.362 41.4667 165.709 41.4533 166.055 41.48C166.429 41.48 166.802 41.5467 167.175 41.68C167.549 41.8133 167.895 42.04 168.215 42.36C168.215 41.9067 168.202 41.4133 168.175 40.88C168.175 40.32 168.162 39.76 168.135 39.2C168.109 38.64 168.069 38.12 168.015 37.64C167.989 37.1333 167.949 36.7067 167.895 36.36C167.842 35.96 167.682 35.72 167.415 35.64C167.175 35.5333 166.869 35.5467 166.495 35.68C165.855 35.8933 165.109 36.3067 164.255 36.92C163.402 37.5333 162.589 38.1867 161.815 38.88C161.575 39.12 161.295 39.2267 160.975 39.2C160.682 39.1733 160.429 39.0533 160.215 38.84C160.002 38.6267 159.882 38.3867 159.855 38.12C159.829 37.8267 159.935 37.52 160.175 37.2C160.629 36.72 161.135 36.2267 161.695 35.72C162.255 35.2133 162.842 34.76 163.455 34.36C164.069 33.9333 164.695 33.5867 165.335 33.32C165.975 33.0533 166.615 32.9067 167.255 32.88C168.189 32.8533 168.909 33.0667 169.415 33.52C169.922 33.9467 170.229 34.5067 170.335 35.2ZM165.695 43.8C165.349 43.88 164.975 44.0533 164.575 44.32C164.202 44.56 163.855 44.8667 163.535 45.24C163.242 45.5867 163.015 45.9867 162.855 46.44C162.722 46.8667 162.722 47.2933 162.855 47.72C162.909 47.88 163.015 48 163.175 48.08C163.362 48.16 163.562 48.1733 163.775 48.12C164.415 47.9867 165.135 47.7333 165.935 47.36C166.762 46.96 167.415 46.5333 167.895 46.08C167.895 45.92 167.815 45.72 167.655 45.48C167.495 45.2133 167.309 44.96 167.095 44.72C166.882 44.4533 166.642 44.2267 166.375 44.04C166.135 43.8533 165.909 43.7733 165.695 43.8ZM177.27 36.8C177.35 37.2 177.43 37.6533 177.51 38.16C177.617 38.64 177.724 39.1467 177.83 39.68C177.937 40.1867 178.03 40.7067 178.11 41.24C178.19 41.7733 178.257 42.28 178.31 42.76C178.63 42.0667 178.977 41.3333 179.35 40.56C179.724 39.7867 180.124 39.08 180.55 38.44C181.004 37.7733 181.47 37.2267 181.95 36.8C182.457 36.3733 183.004 36.16 183.59 36.16C184.47 36.16 185.204 36.48 185.79 37.12C186.404 37.76 186.91 38.56 187.31 39.52C187.737 40.4533 188.07 41.44 188.31 42.48C188.55 43.52 188.75 44.44 188.91 45.24C189.07 45.96 188.75 46.4933 187.95 46.84C187.577 47.0267 187.297 47.0533 187.11 46.92C186.924 46.7867 186.817 46.6533 186.79 46.52C186.657 46.2 186.484 45.64 186.27 44.84C186.084 44.04 185.857 43.2267 185.59 42.4C185.35 41.5733 185.07 40.8533 184.75 40.24C184.43 39.6267 184.07 39.3467 183.67 39.4C183.19 39.4267 182.764 39.7867 182.39 40.48C182.07 41.04 181.737 41.6667 181.39 42.36C181.07 43.0267 180.75 43.72 180.43 44.44C180.11 45.1333 179.79 45.84 179.47 46.56C179.177 47.2533 178.897 47.8933 178.63 48.48C178.444 48.6667 178.204 48.8 177.91 48.88C177.644 48.9333 177.364 48.9067 177.07 48.8C176.804 48.72 176.59 48.5867 176.43 48.4C176.27 48.2133 176.19 48.0267 176.19 47.84C175.95 45.76 175.697 43.8667 175.43 42.16C175.19 40.4533 174.87 38.7067 174.47 36.92C174.284 36.3067 174.244 35.8267 174.35 35.48C174.484 35.1067 174.884 34.96 175.55 35.04C176.484 35.2 177.057 35.7867 177.27 36.8ZM212.874 35.2C212.981 35.9467 213.061 36.7467 213.114 37.6C213.194 38.4267 213.248 39.2667 213.274 40.12C213.328 40.9733 213.354 41.8 213.354 42.6C213.354 43.4 213.341 44.12 213.314 44.76C214.168 45.3467 214.674 45.8667 214.834 46.32C215.021 46.7733 215.048 47.1733 214.914 47.52C214.754 48 214.461 48.2533 214.034 48.28C213.634 48.28 213.168 48.1333 212.634 47.84C212.261 48.1067 211.834 48.4 211.354 48.72C210.874 49.0133 210.368 49.3067 209.834 49.6C209.301 49.8667 208.768 50.1067 208.234 50.32C207.701 50.5333 207.208 50.68 206.754 50.76C205.901 50.8933 205.128 50.7333 204.434 50.28C203.768 49.8267 203.314 49.1467 203.074 48.24C202.914 47.6267 202.874 47 202.954 46.36C203.034 45.6933 203.234 45.0667 203.554 44.48C203.874 43.8667 204.301 43.32 204.834 42.84C205.394 42.36 206.048 41.9867 206.794 41.72C206.981 41.64 207.234 41.5733 207.554 41.52C207.901 41.4667 208.248 41.4533 208.594 41.48C208.968 41.48 209.341 41.5467 209.714 41.68C210.088 41.8133 210.434 42.04 210.754 42.36C210.754 41.9067 210.741 41.4133 210.714 40.88C210.714 40.32 210.701 39.76 210.674 39.2C210.648 38.64 210.608 38.12 210.554 37.64C210.528 37.1333 210.488 36.7067 210.434 36.36C210.381 35.96 210.221 35.72 209.954 35.64C209.714 35.5333 209.408 35.5467 209.034 35.68C208.394 35.8933 207.648 36.3067 206.794 36.92C205.941 37.5333 205.128 38.1867 204.354 38.88C204.114 39.12 203.834 39.2267 203.514 39.2C203.221 39.1733 202.968 39.0533 202.754 38.84C202.541 38.6267 202.421 38.3867 202.394 38.12C202.368 37.8267 202.474 37.52 202.714 37.2C203.168 36.72 203.674 36.2267 204.234 35.72C204.794 35.2133 205.381 34.76 205.994 34.36C206.608 33.9333 207.234 33.5867 207.874 33.32C208.514 33.0533 209.154 32.9067 209.794 32.88C210.728 32.8533 211.448 33.0667 211.954 33.52C212.461 33.9467 212.768 34.5067 212.874 35.2ZM208.234 43.8C207.888 43.88 207.514 44.0533 207.114 44.32C206.741 44.56 206.394 44.8667 206.074 45.24C205.781 45.5867 205.554 45.9867 205.394 46.44C205.261 46.8667 205.261 47.2933 205.394 47.72C205.448 47.88 205.554 48 205.714 48.08C205.901 48.16 206.101 48.1733 206.314 48.12C206.954 47.9867 207.674 47.7333 208.474 47.36C209.301 46.96 209.954 46.5333 210.434 46.08C210.434 45.92 210.354 45.72 210.194 45.48C210.034 45.2133 209.848 44.96 209.634 44.72C209.421 44.4533 209.181 44.2267 208.914 44.04C208.674 43.8533 208.448 43.7733 208.234 43.8ZM18.52 75.96C18.8133 76.1733 19.0533 76.5067 19.24 76.96C19.4267 77.4133 19.3867 77.8267 19.12 78.2C18.7467 78.5733 18.3867 78.7467 18.04 78.72C17.6933 78.6933 17.3733 78.56 17.08 78.32C16.7867 78.1067 16.4267 77.84 16 77.52C15.6 77.2 15.1333 76.84 14.6 76.44C13.9867 77.1867 13.32 77.8 12.6 78.28C11.9067 78.76 11.2 79.12 10.48 79.36C9.76 79.6 9.05333 79.72 8.36 79.72C7.69333 79.72 7.08 79.6133 6.52 79.4C5.85333 79.16 5.26667 78.7867 4.76 78.28C4.25333 77.7467 3.84 77.16 3.52 76.52C3.2 75.8533 2.96 75.16 2.8 74.44C2.64 73.72 2.58667 73.0267 2.64 72.36C2.77333 70.6267 3.37333 69 4.44 67.48C5.53333 65.96 6.82667 64.7333 8.32 63.8C8.58667 63.6667 8.90667 63.5733 9.28 63.52C9.68 63.4667 10.0533 63.4933 10.4 63.6C10.72 63.28 11.16 63.0133 11.72 62.8C12.2533 62.64 12.7733 62.6267 13.28 62.76C13.8133 62.8667 14.2933 63.0667 14.72 63.36C15.1733 63.6533 15.5733 64 15.92 64.4C16.2667 64.8 16.5333 65.2 16.72 65.6C17.2 66.6133 17.4267 67.88 17.4 69.4C17.4 70.92 16.9733 72.4933 16.12 74.12C16.52 74.4133 16.92 74.72 17.32 75.04C17.72 75.36 18.12 75.6667 18.52 75.96ZM10.44 65.84C10.2267 65.9467 10.0133 66.04 9.8 66.12C9.61333 66.1733 9.41333 66.2533 9.2 66.36C8.98667 66.4667 8.76 66.6133 8.52 66.8C8.28 66.96 8.04 67.1867 7.8 67.48C7.32 68.04 6.89333 68.6533 6.52 69.32C6.14667 69.96 5.86667 70.6267 5.68 71.32C5.49333 72.0133 5.41333 72.7333 5.44 73.48C5.49333 74.2267 5.69333 74.9867 6.04 75.76C6.14667 75.9733 6.33333 76.2 6.6 76.44C6.86667 76.68 7.18667 76.8667 7.56 77C8.33333 77.2933 9.16 77.24 10.04 76.84C10.92 76.4133 11.7467 75.7733 12.52 74.92C12.0667 74.6 11.6133 74.28 11.16 73.96C10.7067 73.64 10.2667 73.3333 9.84 73.04C9.68 72.9333 9.52 72.7733 9.36 72.56C9.2 72.3467 9.08 72.12 9 71.88C8.92 71.6133 8.88 71.3467 8.88 71.08C8.90667 70.8133 9 70.5733 9.16 70.36C9.32 70.1467 9.53333 70.0133 9.8 69.96C10.0667 69.88 10.3867 69.9733 10.76 70.24C11.32 70.64 11.88 71.04 12.44 71.44C13 71.8133 13.56 72.2 14.12 72.6C14.52 71.8 14.7867 70.9467 14.92 70.04C15.08 69.1333 15.04 68.2533 14.8 67.4C14.6933 67.0267 14.5067 66.68 14.24 66.36C14 66.0133 13.72 65.7333 13.4 65.52C13.08 65.3067 12.76 65.1867 12.44 65.16C12.12 65.1067 11.84 65.1867 11.6 65.4C11.3867 65.6133 11.1867 65.7467 11 65.8C10.8133 65.8533 10.64 65.8667 10.48 65.84H10.44ZM23.9947 79.36C23.9147 78.3733 23.848 77.2533 23.7947 76C23.768 74.7467 23.7547 73.4667 23.7547 72.16C23.7547 70.8267 23.7547 69.52 23.7547 68.24C23.7814 66.96 23.8214 65.8 23.8747 64.76C23.8747 64.4933 23.9947 64.2933 24.2347 64.16C24.5014 64 24.7147 63.9333 24.8747 63.96C25.3547 64.0133 25.6747 64.1867 25.8347 64.48C26.0214 64.7467 26.1414 65.1333 26.1947 65.64C26.168 66.4933 26.1414 67.3467 26.1147 68.2C26.1147 69.0533 26.128 69.9067 26.1547 70.76C27.3547 70.5467 28.3547 70.1067 29.1547 69.44C29.9814 68.7733 30.568 68.0133 30.9147 67.16C31.048 66.84 31.1414 66.4533 31.1947 66C31.2747 65.5467 31.288 65.0933 31.2347 64.64C31.1814 64.16 31.048 63.72 30.8347 63.32C30.648 62.8933 30.3547 62.56 29.9547 62.32C29.368 61.9733 28.728 61.7867 28.0347 61.76C27.3414 61.7333 26.6214 61.84 25.8747 62.08C25.1547 62.2933 24.4347 62.64 23.7147 63.12C23.0214 63.6 22.368 64.1733 21.7547 64.84C21.8347 65.24 21.7814 65.6 21.5947 65.92C21.408 66.2133 21.1414 66.4267 20.7947 66.56C20.5814 66.6133 20.328 66.5067 20.0347 66.24C19.7414 65.9467 19.5947 65.6533 19.5947 65.36C19.5947 64.2933 19.888 63.3733 20.4747 62.6C21.088 61.8 21.848 61.1333 22.7547 60.6C23.6614 60.0667 24.6347 59.6667 25.6747 59.4C26.7147 59.1333 27.6747 59 28.5547 59C29.8614 59 30.9547 59.3867 31.8347 60.16C32.7147 60.9067 33.3147 61.8533 33.6347 63C34.1947 65 34.048 66.8 33.1947 68.4C32.368 70 31.008 71.3867 29.1147 72.56C30.5014 73.4133 31.7947 74.2267 32.9947 75C34.2214 75.7733 35.448 76.6133 36.6747 77.52C36.8347 77.68 37.008 77.92 37.1947 78.24C37.408 78.5333 37.3814 78.9867 37.1147 79.6C36.9547 79.9733 36.6747 80.1867 36.2747 80.24C35.9014 80.2667 35.528 80.1467 35.1547 79.88C34.568 79.4 33.9014 78.9067 33.1547 78.4C32.4347 77.8667 31.6747 77.3467 30.8747 76.84C30.0747 76.3067 29.2747 75.8 28.4747 75.32C27.6747 74.8133 26.9147 74.3467 26.1947 73.92C26.2214 74.9867 26.2347 76.0533 26.2347 77.12C26.2614 78.16 26.3014 79.1867 26.3547 80.2C26.3547 80.5733 26.248 80.84 26.0347 81C25.8214 81.1333 25.5547 81.2 25.2347 81.2C25.0747 81.1733 24.928 81.0933 24.7947 80.96C24.6614 80.8 24.528 80.6267 24.3947 80.44C24.288 80.2267 24.1947 80.0267 24.1147 79.84C24.0347 79.6267 23.9947 79.4667 23.9947 79.36ZM58.6153 65.36C58.722 65.4933 58.7753 65.6667 58.7753 65.88C58.802 66.0667 58.7753 66.2267 58.6953 66.36C58.562 66.6533 58.3353 66.76 58.0153 66.68C57.4553 66.5467 56.8686 66.4933 56.2553 66.52C55.642 66.5467 55.0286 66.7867 54.4153 67.24C53.802 67.6933 53.322 68.36 52.9753 69.24C52.6286 70.0933 52.4553 70.9867 52.4553 71.92C52.4553 72.8267 52.6686 73.6133 53.0953 74.28C53.5486 74.92 54.122 75.3867 54.8153 75.68C55.242 75.8667 55.722 75.9733 56.2553 76C56.7886 76.0267 57.322 76.0133 57.8553 75.96C58.4153 75.88 58.962 75.7733 59.4953 75.64C60.0286 75.48 60.5353 75.3067 61.0153 75.12C61.1753 75.0667 61.322 75.08 61.4553 75.16C61.6153 75.24 61.722 75.3467 61.7753 75.48C61.9086 75.8267 61.842 76.1733 61.5753 76.52C61.2553 76.8667 60.8286 77.1733 60.2953 77.44C59.762 77.7067 59.1753 77.92 58.5353 78.08C57.8953 78.24 57.242 78.3333 56.5753 78.36C55.9086 78.36 55.282 78.28 54.6953 78.12C53.8686 77.9067 53.162 77.6 52.5753 77.2C52.0153 76.7733 51.5486 76.2933 51.1753 75.76C50.802 75.2 50.522 74.6133 50.3353 74C50.1486 73.36 50.042 72.7067 50.0153 72.04C49.962 70.44 50.2686 69 50.9353 67.72C51.6286 66.44 52.5886 65.4933 53.8153 64.88C54.722 64.4267 55.6286 64.2533 56.5353 64.36C57.4686 64.44 58.162 64.7733 58.6153 65.36ZM73.2853 66.04C74.0853 66.3333 74.752 66.7733 75.2853 67.36C75.8453 67.9467 76.272 68.6133 76.5653 69.36C76.8586 70.08 77.0186 70.8267 77.0453 71.6C77.0986 72.3733 77.0186 73.0933 76.8053 73.76C76.512 74.5067 76.1386 75.24 75.6853 75.96C75.232 76.68 74.712 77.32 74.1253 77.88C73.5386 78.44 72.872 78.8933 72.1253 79.24C71.3786 79.5867 70.552 79.76 69.6453 79.76C68.552 79.76 67.632 79.5067 66.8853 79C66.1386 78.4933 65.552 77.84 65.1253 77.04C64.6986 76.24 64.4186 75.3333 64.2853 74.32C64.1786 73.3067 64.2053 72.2933 64.3653 71.28C64.472 70.5333 64.6453 69.8133 64.8853 69.12C65.152 68.4 65.4853 67.7733 65.8853 67.24C66.2853 66.68 66.7386 66.2267 67.2453 65.88C67.7786 65.5333 68.3786 65.36 69.0453 65.36C69.4186 65.36 69.8853 65.44 70.4453 65.6C71.0053 65.7333 71.5253 65.9333 72.0053 66.2C72.352 65.88 72.7786 65.8267 73.2853 66.04ZM71.7653 68.96C71.472 68.7733 71.1253 68.5333 70.7253 68.24C70.352 67.92 70.0186 67.76 69.7253 67.76C69.4053 67.76 69.0853 67.9067 68.7653 68.2C68.472 68.4933 68.2053 68.84 67.9653 69.24C67.752 69.6133 67.5653 70 67.4053 70.4C67.2453 70.8 67.1386 71.12 67.0853 71.36C67.0053 71.76 66.952 72.24 66.9253 72.8C66.8986 73.36 66.9386 73.92 67.0453 74.48C67.152 75.0133 67.352 75.5067 67.6453 75.96C67.9653 76.3867 68.432 76.6933 69.0453 76.88C69.4186 76.9867 69.8586 76.9867 70.3653 76.88C70.872 76.7467 71.3653 76.52 71.8453 76.2C72.352 75.88 72.8186 75.4533 73.2453 74.92C73.6986 74.3867 74.0453 73.7733 74.2853 73.08C74.552 72.3067 74.552 71.5067 74.2853 70.68C74.0453 69.8267 73.5386 69.2133 72.7653 68.84C72.5786 68.9733 72.392 69.04 72.2053 69.04C72.0186 69.04 71.872 69.0133 71.7653 68.96ZM87.0172 59.72C86.9372 59.24 86.9639 58.8 87.0972 58.4C87.2572 58 87.5639 57.7733 88.0172 57.72C88.4172 57.6667 88.7639 57.7733 89.0572 58.04C89.3772 58.3067 89.5772 58.6533 89.6572 59.08C90.1905 62.1467 90.6839 65.2 91.1372 68.24C91.6172 71.2533 92.0439 74.2133 92.4172 77.12C92.5239 77.8933 92.4705 78.4267 92.2572 78.72C92.0439 78.9867 91.7905 79.1867 91.4972 79.32C91.1772 79.4533 90.8705 79.4533 90.5772 79.32C90.3105 79.1867 90.1372 78.9467 90.0572 78.6L90.0172 78.36L89.8572 78.4C88.9772 78.72 88.0572 78.9067 87.0972 78.96C86.1372 78.9867 85.2172 78.8667 84.3372 78.6C83.4572 78.3333 82.6705 77.9067 81.9772 77.32C81.3105 76.7067 80.8305 75.9333 80.5372 75C79.8972 72.9467 80.2972 71.08 81.7372 69.4C82.3505 68.7067 83.1105 68.08 84.0172 67.52C84.9239 66.96 86.0172 66.52 87.2972 66.2L88.0172 66.04L87.0172 59.72ZM82.9772 74C83.1372 74.64 83.4305 75.1333 83.8572 75.48C84.2839 75.8267 84.7905 76.0667 85.3772 76.2C85.9639 76.3067 86.5905 76.32 87.2572 76.24C87.9239 76.16 88.5772 76.0133 89.2172 75.8L89.5772 75.68L88.4572 68.64L87.6572 68.84C87.0972 69 86.4972 69.2533 85.8572 69.6C85.2439 69.92 84.6972 70.3067 84.2172 70.76C83.7372 71.2133 83.3639 71.72 83.0972 72.28C82.8572 72.84 82.8172 73.4133 82.9772 74ZM104.234 70.6C103.194 71.2133 102.074 71.6933 100.874 72.04C99.6741 72.36 98.3807 72.52 96.9941 72.52C97.0474 73.4533 97.3141 74.2 97.7941 74.76C98.2741 75.2933 98.8741 75.6133 99.5941 75.72C100.021 75.7733 100.447 75.76 100.874 75.68C101.327 75.6 101.741 75.48 102.114 75.32C102.514 75.1333 102.874 74.9333 103.194 74.72C103.514 74.5067 103.794 74.2933 104.034 74.08C104.274 73.8667 104.527 73.7333 104.794 73.68C105.061 73.6 105.261 73.5867 105.394 73.64C105.767 73.7733 105.901 74.1733 105.794 74.84C105.367 75.6933 104.754 76.4267 103.954 77.04C103.154 77.6267 102.261 78 101.274 78.16C100.421 78.32 99.5407 78.28 98.6341 78.04C97.7274 77.8 96.9141 77.3333 96.1941 76.64C95.5807 76.0267 95.1141 75.3067 94.7941 74.48C94.4741 73.6533 94.2741 72.8 94.1941 71.92C94.1141 71.0933 94.1807 70.3067 94.3941 69.56C94.6341 68.8133 94.9941 68.16 95.4741 67.6C95.9541 67.0133 96.5541 66.5333 97.2741 66.16C97.9941 65.7867 98.8341 65.5733 99.7941 65.52C100.941 65.44 101.981 65.6533 102.914 66.16C103.847 66.6667 104.501 67.3733 104.874 68.28C105.087 68.7867 105.141 69.2267 105.034 69.6C104.954 69.9733 104.687 70.3067 104.234 70.6ZM99.6341 67.88C99.3674 67.9333 99.0741 68.0267 98.7541 68.16C98.4607 68.2933 98.1807 68.4667 97.9141 68.68C97.6741 68.8667 97.4474 69.0933 97.2341 69.36C97.0474 69.6 96.9407 69.88 96.9141 70.2C97.3674 70.2 97.8607 70.16 98.3941 70.08C98.9541 70 99.4874 69.9067 99.9941 69.8C100.527 69.6667 101.007 69.52 101.434 69.36C101.887 69.2 102.261 69.0267 102.554 68.84C102.341 68.3333 101.941 68.0267 101.354 67.92C100.794 67.7867 100.221 67.7733 99.6341 67.88ZM114.898 59.04C114.658 60.2133 114.404 61.3733 114.138 62.52C113.898 63.6667 113.671 64.8133 113.458 65.96C113.244 67.1067 113.084 68.2533 112.978 69.4C112.871 70.5467 112.858 71.6933 112.938 72.84C112.991 73.1333 112.938 73.4133 112.778 73.68C112.644 73.9467 112.484 74.12 112.298 74.2C111.711 74.4133 111.284 74.2667 111.018 73.76C110.698 72.4 110.524 71.0533 110.498 69.72C110.498 68.3867 110.591 67.0667 110.778 65.76C110.991 64.4533 111.258 63.16 111.578 61.88C111.924 60.5733 112.271 59.28 112.618 58C112.751 57.4667 112.964 57.1733 113.258 57.12C113.551 57.0667 113.831 57.0933 114.098 57.2C114.498 57.3333 114.751 57.6 114.858 58C114.964 58.4 114.978 58.7467 114.898 59.04ZM113.298 80.56C113.298 80.8533 113.258 81.2533 113.178 81.76C113.124 82.24 113.018 82.6933 112.858 83.12C112.724 83.5467 112.524 83.8933 112.258 84.16C112.018 84.4267 111.711 84.48 111.338 84.32C111.124 84.1867 110.911 83.9333 110.698 83.56C110.484 83.1867 110.391 82.84 110.418 82.52C110.471 81.88 110.604 81.2533 110.818 80.64C111.031 80.0267 111.311 79.6533 111.658 79.52C111.818 79.4667 111.991 79.4667 112.178 79.52C112.391 79.5733 112.578 79.6667 112.738 79.8C112.898 79.9067 113.031 80.04 113.138 80.2C113.244 80.3333 113.298 80.4533 113.298 80.56Z" fill="#066664" fill-opacity="0.8"/>
</svg>
